<svg width="10" height="10" xmlns="http://www.w3.org/2000/svg"><g fill="none" fill-rule="evenodd"><path fill="#F0F1F4" d="M-289-239H86v667h-375z"/><path d="M-289-31H86v72h-375z" fill="#FFF"/><g transform="translate(-8 -9)"><rect stroke="#119C8F" x=".5" y=".5" width="77" height="27" rx="3"/><path d="M17.375 12c.345 0 .625.224.625.5s-.28.5-.625.5H8.626c-.512 0-.806-.465-.504-.795l2.746-3c.204-.223.595-.272.874-.108.278.163.338.476.134.698L9.858 12h7.517zm-8.75 4C8.28 16 8 15.776 8 15.5s.28-.5.625-.5h8.749c.512 0 .806.465.504.795l-2.746 3c-.204.223-.595.272-.874.108-.278-.163-.338-.476-.134-.698L16.142 16H8.625z" fill="#119C8F" fill-rule="nonzero"/></g></g></svg>
