<svg width="20" height="20" xmlns="http://www.w3.org/2000/svg"><g fill-rule="nonzero" fill="#75B9EB"><path d="M13.024 15.676A4.251 4.251 0 0 1 10 16.929 4.282 4.282 0 0 1 5.72 12.65c0-1.143.445-2.217 1.253-3.025A4.251 4.251 0 0 1 10 8.372a4.25 4.25 0 0 1 3.025 1.253 4.25 4.25 0 0 1 1.252 3.025 4.251 4.251 0 0 1-1.253 3.026zm-4.95-4.95a2.707 2.707 0 0 0-.797 1.925 2.725 2.725 0 0 0 2.722 2.722c.727 0 1.411-.283 1.925-.798a2.706 2.706 0 0 0 .798-1.925c0-.727-.283-1.41-.797-1.925A2.705 2.705 0 0 0 10 9.928c-.727 0-1.411.283-1.925.798z"/><path d="M9.822 9.116c-.412 0-.57.267-.57-.145l.002-4.117-.539.54a.746.746 0 0 1-1.054-1.055l1.812-1.812a.746.746 0 0 1 1.272.527l-.017 5.882c0 .206-.7.18-.906.18z"/><path d="M12.2 5.3c-.304.303-.776.323-1.056.044L9.406 3.606c-.28-.28-.26-.752.044-1.056.304-.304.776-.324 1.056-.044l1.738 1.738c.28.28.26.752-.044 1.056z"/></g></svg>
