<svg width="16" height="14" xmlns="http://www.w3.org/2000/svg"><path d="M1.647 1.013h12.705c.298 0 .541.226.541.512V9.72c0 .287-.245.517-.546.519l-3.162.02a.582.582 0 0 0-.37.132l-3.277 2.728.76.013-3.027-2.728a.58.58 0 0 0-.383-.146l-3.216-.02c-.313 0-.566-.232-.566-.518V1.525c0-.283.247-.512.541-.512zM0 9.72c0 .844.744 1.527 1.665 1.532l3.215.02-.384-.146 3.026 2.728a.59.59 0 0 0 .76.015l3.278-2.73-.368.132 3.162-.02c.915-.008 1.65-.692 1.646-1.53V1.524C16 .682 15.265 0 14.353 0H1.647C.74 0 0 .686 0 1.524V9.72z" fill="#999" fill-rule="nonzero"/></svg>
