<svg width="24" height="24" xmlns="http://www.w3.org/2000/svg"><g fill-rule="nonzero" fill="none"><path d="M5.724 23.46c-.263 0-.513-.067-.75-.198a1.515 1.515 0 0 1-.776-1.329v-3.276c-2.67-2.026-4.197-4.96-4.197-8.052C.001 4.751 5.382.001 12 .001s11.999 4.763 11.999 10.604c0 5.855-5.381 10.604-11.999 10.604a13.93 13.93 0 0 1-1.92-.144l-3.566 2.17a1.56 1.56 0 0 1-.79.224z" fill="#119C8F"/><path d="M12 1.633c-5.71 0-10.367 4.026-10.367 8.96 0 2.591 1.302 5.064 3.591 6.775.382.29.606.737.606 1.223v3.132l3.433-2.08c.303-.183.671-.25 1.014-.21.592.092 1.157.132 1.723.132 5.71 0 10.367-4.026 10.367-8.96 0-4.946-4.657-8.972-10.367-8.972z" fill="#81D8D0"/><path d="M5.974 10.46c0 .75.606 1.356 1.356 1.356.75 0 1.355-.605 1.355-1.355S8.079 9.106 7.33 9.106c-.75 0-1.356.605-1.356 1.355zm4.67 0c0 .75.606 1.356 1.356 1.356.75 0 1.355-.605 1.355-1.355S12.75 9.106 12 9.106s-1.355.605-1.355 1.355zm4.671 0c0 .75.606 1.356 1.355 1.356.75 0 1.356-.605 1.356-1.355s-.606-1.355-1.356-1.355c-.75 0-1.355.605-1.355 1.355z" fill="#119C8F"/></g></svg>
