<svg width="28" height="27" xmlns="http://www.w3.org/2000/svg"><defs><filter x="-3.2%" y="-27.3%" width="106.4%" height="154.5%" filterUnits="objectBoundingBox" id="a"><feOffset in="SourceAlpha" result="shadowOffsetOuter1"/><feGaussianBlur stdDeviation="4" in="shadowOffsetOuter1" result="shadowBlurOuter1"/><feColorMatrix values="0 0 0 0 0.2 0 0 0 0 0.2 0 0 0 0 0.2 0 0 0 0.12 0" in="shadowBlurOuter1" result="shadowMatrixOuter1"/><feMerge><feMergeNode in="shadowMatrixOuter1"/><feMergeNode in="SourceGraphic"/></feMerge></filter></defs><g filter="url(#a)" transform="translate(-62 -8)" fill-rule="nonzero" fill="none"><path d="M72.862 27.73a.76.76 0 0 1-.763-.763v-1.638c-1.335-1.013-2.098-2.48-2.098-4.026C70 18.375 72.69 16 76 16c3.309 0 6 2.381 6 5.302 0 2.927-2.691 5.302-6 5.302-.31 0-.632-.027-.96-.073l-1.783 1.086a.78.78 0 0 1-.395.112z" fill="#119C8F"/><path d="M76 16.816c-2.855 0-5.184 2.013-5.184 4.48 0 1.296.652 2.533 1.796 3.388.191.145.303.368.303.612v1.565l1.717-1.04a.807.807 0 0 1 .506-.104c.296.046.58.065.862.065 2.855 0 5.184-2.012 5.184-4.48 0-2.473-2.33-4.486-5.184-4.486z" fill="#FFF"/><path d="M72.987 21.23a.677.677 0 1 0 1.355 0 .677.677 0 1 0-1.355 0zm2.335 0a.677.677 0 1 0 1.356 0 .677.677 0 1 0-1.356 0zm2.336 0a.677.677 0 1 0 1.355 0 .677.677 0 1 0-1.355 0z" fill="#119C8F"/></g></svg>
