<svg width="20" height="20" xmlns="http://www.w3.org/2000/svg"><g fill-rule="nonzero" fill="#F7827C"><path d="M10.375 10.75A4.38 4.38 0 0 1 6 6.375 4.38 4.38 0 0 1 10.375 2a4.38 4.38 0 0 1 4.375 4.375 4.38 4.38 0 0 1-4.375 4.375zm0-7.116a2.744 2.744 0 0 0-2.741 2.741 2.744 2.744 0 0 0 2.741 2.741 2.744 2.744 0 0 0 2.741-2.741 2.744 2.744 0 0 0-2.741-2.741z"/><path d="M10.286 17a.812.812 0 0 1-.804-.82V9.962c0-.452.36-.82.804-.82.443 0 .803.368.803.82v6.218c0 .453-.36.82-.803.82z"/><path d="M13.484 13.786H7.266a.812.812 0 0 1-.82-.804c0-.444.368-.803.82-.803h6.218c.452 0 .82.36.82.803a.812.812 0 0 1-.82.804z"/></g></svg>
