<svg width="16" height="14" xmlns="http://www.w3.org/2000/svg"><path d="M7.978 13.45c.282-.2.678-.496 1.149-.868.87-.69 1.738-1.44 2.548-2.23 2.243-2.186 3.647-4.276 3.81-6.036.09-.985-.214-1.834-.92-2.556C13.8.975 13.002.591 12.18.591c-1.4 0-2.736 1.065-3.786 2.512l-.424.584-.398-.602C6.586 1.595 5.299.5 3.896.5c-.841 0-1.683.414-2.51 1.26-.663.68-.953 1.488-.873 2.434.148 1.747 1.542 3.856 3.776 6.084a34.004 34.004 0 0 0 2.541 2.28c.47.382.866.686 1.148.893zm.123.09zm-.125-.04z" fill-rule="nonzero" stroke="#999" fill="none"/></svg>
