<?xml version="1.0" encoding="UTF-8" standalone="no"?>
<svg width="16px" height="17px" viewBox="0 0 16 17" version="1.1" xmlns="http://www.w3.org/2000/svg" xmlns:xlink="http://www.w3.org/1999/xlink">
    <!-- Generator: Sketch 44.1 (41455) - http://www.bohemiancoding.com/sketch -->
    <title>历史签到</title>
    <desc>Created with Sketch.</desc>
    <defs></defs>
    <g id="Symbols" stroke="none" stroke-width="1" fill="none" fill-rule="evenodd">
        <g id="侧边栏" transform="translate(-42.000000, -207.000000)" fill-rule="nonzero" fill="#FFFFFF">
            <g id="历史签到">
                <g transform="translate(42.000000, 207.000000)">
                    <path d="M4.23255203,2.82542094 C4.45686747,2.82542094 4.68118291,2.69137577 4.68118291,2.46796715 L4.68118291,0.367926078 C4.68118291,0.189199179 4.50173056,0.0104722793 4.23255203,0.0104722793 C4.00823658,0.0104722793 3.78392114,0.144517454 3.78392114,0.367926078 L3.78392114,2.51264887 C3.78392114,2.69137577 4.00823658,2.82542094 4.23255203,2.82542094 Z M11.7695509,2.82542094 C11.9938664,2.82542094 12.2181818,2.69137577 12.2181818,2.46796715 L12.2181818,0.367926078 C12.2181818,0.189199179 12.0387295,0.0104722793 11.7695509,0.0104722793 C11.5452355,0.0104722793 11.32092,0.144517454 11.32092,0.367926078 L11.32092,2.46796715 C11.32092,2.69137577 11.5452355,2.82542094 11.7695509,2.82542094 L11.7695509,2.82542094 Z M14.820241,6.13186858 L14.820241,15.157577 C14.820241,15.4256674 14.5510624,15.649076 14.1921577,15.649076 L1.80994524,15.649076 C1.45104053,15.649076 1.18186199,15.4256674 1.18186199,15.157577 L1.18186199,6.13186858 L0.0154216867,6.13186858 L0.0154216867,15.4256674 C0.0154216867,16.2746201 0.822957284,16.9895277 1.80994524,16.9895277 L14.1921577,16.9895277 C15.1791457,16.9895277 15.9866813,16.2746201 15.9866813,15.4256674 L15.9866813,6.13186858 L14.820241,6.13186858 L14.820241,6.13186858 Z" id="Shape"></path>
                    <path d="M15.9866813,4.83609856 L15.9866813,2.73605749 C15.9866813,1.88710472 15.1791457,1.17219713 14.1921577,1.17219713 L12.7116758,1.17219713 L12.7116758,2.33392197 C12.7116758,2.78073922 12.307908,3.13819302 11.7695509,3.13819302 C11.276057,3.13819302 10.8274261,2.78073922 10.8274261,2.33392197 L10.8274261,1.1275154 L5.1298138,1.1275154 L5.1298138,2.28924025 C5.1298138,2.73605749 4.726046,3.09351129 4.18768894,3.09351129 C3.69419496,3.09351129 3.24556407,2.73605749 3.24556407,2.28924025 L3.24556407,1.1275154 L1.80994524,1.1275154 C0.822957284,1.1275154 0.0154216867,1.842423 0.0154216867,2.69137577 L0.0154216867,4.79141684 L15.9866813,4.79141684 L15.9866813,4.83609856 Z M0.912683461,6.13186858 L0.912683461,16.0512115 L15.1791457,16.0512115 L15.1791457,6.13186858 L0.912683461,6.13186858 Z M12.0387295,8.63404517 L7.68700986,13.6383984 C7.46269441,13.9064887 7.05892662,13.9064887 6.83461117,13.6383984 L4.41200438,10.8234497 C4.18768894,10.5553593 4.18768894,10.1085421 4.41200438,9.84045175 C4.63631982,9.5723614 5.04008762,9.5723614 5.26440307,9.84045175 L7.28324206,12.1639014 L11.2311939,7.65104723 C11.4555093,7.38295688 11.8592771,7.38295688 12.0835926,7.65104723 C12.2630449,7.9638193 12.2630449,8.36595483 12.0387295,8.63404517 Z" id="Shape"></path>
                </g>
            </g>
        </g>
    </g>
</svg>