<?xml version="1.0" encoding="UTF-8" standalone="no"?>
<svg width="14px" height="14px" viewBox="0 0 14 14" version="1.1" xmlns="http://www.w3.org/2000/svg" xmlns:xlink="http://www.w3.org/1999/xlink">
    <!-- Generator: Sketch 44.1 (41455) - http://www.bohemiancoding.com/sketch -->
    <title>搜索</title>
    <desc>Created with Sketch.</desc>
    <defs></defs>
    <g id="Symbols" stroke="none" stroke-width="1" fill="none" fill-rule="evenodd" opacity="0.900000036">
        <g id="顶部横栏" transform="translate(-1625.000000, -43.000000)" fill-rule="nonzero" fill="#8E8E8E">
            <g id="搜索">
                <g transform="translate(1625.000000, 43.000000)">
                    <path d="M13.9927961,13.3660072 L10.3566019,9.76044284 C11.278699,8.72535259 11.8441359,7.36248375 11.8441359,5.87022864 C11.8441359,2.62694585 9.19963107,0.00471720818 5.92879612,0.00471720818 C2.65796117,0.00471720818 0.0134563107,2.62694585 0.0134563107,5.87022864 C0.0134563107,9.11351143 2.65796117,11.7357401 5.92879612,11.7357401 C7.37283495,11.7357401 8.70378641,11.2181949 9.73027184,10.3642455 L13.3838641,13.9870614 L13.9927961,13.3660072 L13.9927961,13.3660072 Z M5.92879612,10.8731649 C3.1451068,10.8731649 0.883359223,8.63046931 0.883359223,5.87022864 C0.883359223,3.10998797 3.1451068,0.867292419 5.92879612,0.867292419 C8.71248544,0.867292419 10.974233,3.10998797 10.974233,5.87022864 C10.974233,8.63046931 8.71248544,10.8731649 5.92879612,10.8731649 Z" id="Shape"></path>
                </g>
            </g>
        </g>
    </g>
</svg>