<svg width="19" height="18" xmlns="http://www.w3.org/2000/svg" xmlns:xlink="http://www.w3.org/1999/xlink"><defs><path d="M114.5 47.75l-4.378 2.302a1 1 0 0 1-1.451-1.054l.836-4.876-3.542-3.452a1 1 0 0 1 .554-1.706l4.895-.711 2.19-4.436a1 1 0 0 1 1.793 0l2.189 4.436 4.895.711a1 1 0 0 1 .554 1.706l-3.542 3.452.836 4.876a1 1 0 0 1-1.45 1.054L114.5 47.75z" id="a"/></defs><g transform="translate(-105 -33)" fill="none" fill-rule="evenodd"><use fill="#FFF" xlink:href="#a"/><path stroke="#979797" d="M109.89 49.61l4.61-2.425 4.61 2.424a.5.5 0 0 0 .726-.527l-.88-5.134 3.73-3.636a.5.5 0 0 0-.277-.853l-5.155-.75-2.306-4.67a.5.5 0 0 0-.896 0l-2.306 4.67-5.155.75a.5.5 0 0 0-.277.853l3.73 3.636-.88 5.134a.5.5 0 0 0 .725.527z"/></g></svg>