<svg width="93" height="94" xmlns="http://www.w3.org/2000/svg"><g fill="none" fill-rule="evenodd"><path d="M93.012 47.222C93.012 20.936 72.188.094 45.926.094 20.812.094-.012 20.936-.012 47.222c0 25.137 20.824 45.979 45.938 45.979 26.262 0 47.086-20.842 47.086-45.979z" fill="#52D3C7"/><path d="M23.764 50.076c-.384-.397-.427-1.085-.098-1.533l1.497-2.038a.978.978 0 0 1 1.386-.208l11.674 8.955c.436.335 1.139.315 1.558-.035l29.555-24.644a1.123 1.123 0 0 1 1.476.058l1.277 1.262a.974.974 0 0 1 0 1.394L39.718 65.175a.977.977 0 0 1-1.4-.025L23.763 50.076z" fill="#FFF"/></g></svg>
