<?xml version="1.0" encoding="UTF-8" standalone="no"?>
<svg width="26px" height="22px" viewBox="0 0 26 22" version="1.1" xmlns="http://www.w3.org/2000/svg" xmlns:xlink="http://www.w3.org/1999/xlink">
    <!-- Generator: Sketch 44.1 (41455) - http://www.bohemiancoding.com/sketch -->
    <title>通讯录 (1)</title>
    <desc>Created with Sketch.</desc>
    <defs></defs>
    <g id="Symbols" stroke="none" stroke-width="1" fill="none" fill-rule="evenodd" opacity="0.900000036">
        <g id="顶部横栏" transform="translate(-1735.000000, -39.000000)" fill-rule="nonzero" fill="#8E8E8E">
            <g id="通讯录-(1)">
                <g transform="translate(1735.000000, 39.000000)">
                    <path d="M22.0887782,21.9943776 L1.31387621,21.9943776 L0.219045383,21.3088536 L0.152290574,21.1100771 C0.119822281,21.0118357 -0.158625797,20.1332691 0.13125112,19.2190248 L0.16034271,19.126135 L0.219175257,19.0467519 C0.89555473,18.1367124 2.58728265,17.2256536 4.37758431,16.2608232 C6.01749284,15.3779243 8.49495344,14.0433187 8.51040835,13.3311638 L8.51183695,12.6597835 C6.94686525,11.1758407 6.08866333,9.15583855 6.08866333,6.93960833 C6.08866333,3.51071421 6.75504257,0.00600470588 11.7020415,0.00549502262 C16.6494301,0.0061321267 17.3152898,3.51135131 17.3152898,6.93960833 C17.3152898,9.15647566 16.4551398,11.1773698 14.8919863,12.659019 L14.8941942,13.3430139 C14.9086101,14.0405155 17.3871097,15.376905 19.0270182,16.2600586 C20.8160211,17.2253987 22.5077491,18.1358205 23.1842584,19.0452228 L23.242052,19.1251157 L23.2724423,19.2174957 C23.5614101,20.1317401 23.2834815,21.0117082 23.250234,21.1093126 L23.1838688,21.3075794 L22.0887782,21.9943776 Z M19.318064,6.01249448 L25.9905579,6.01249448 L25.9905579,7.20719204 L19.318064,7.20719204 L19.318064,6.01249448 Z M20.54069,10.1698534 L25.9905579,10.1698534 L25.9905579,11.3640413 L20.54069,11.3640413 L20.54069,10.1698534 Z M22.3469661,14.3421205 L25.9905579,14.3421205 L25.9905579,15.522547 L22.3469661,15.522547 L22.3469661,14.3421205 Z" id="Shape"></path>
                </g>
            </g>
        </g>
    </g>
</svg>