<?xml version="1.0" encoding="UTF-8" standalone="no"?>
<svg width="21px" height="25px" viewBox="0 0 21 25" version="1.1" xmlns="http://www.w3.org/2000/svg" xmlns:xlink="http://www.w3.org/1999/xlink">
    <!-- Generator: Sketch 44.1 (41455) - http://www.bohemiancoding.com/sketch -->
    <title>消息</title>
    <desc>Created with Sketch.</desc>
    <defs></defs>
    <g id="Symbols" stroke="none" stroke-width="1" fill="none" fill-rule="evenodd" opacity="0.900000036">
        <g id="顶部横栏" transform="translate(-1685.000000, -37.000000)" fill-rule="nonzero" fill="#8E8E8E">
            <g id="消息">
                <g transform="translate(1685.000000, 37.000000)">
                    <path d="M10.5925119,3.91157665 C9.52295376,3.91157665 8.6522539,3.03753372 8.6522539,1.96290238 C8.6522539,0.888271033 9.52295379,0.0140111853 10.5925119,0.0140111853 C11.6625019,0.0140111853 12.5331748,0.888271007 12.5331748,1.96290238 C12.5331748,3.03753375 11.6625019,3.91157665 10.5925119,3.91157665 Z" id="Shape"></path>
                    <path d="M19.0779481,22.0515369 L1.90651661,22.0515369 C1.5387396,22.0515369 0.419588416,22.0515369 0.0890129585,21.2060256 C-0.299713557,20.2118653 0.708669852,18.9218622 1.86804621,17.5765686 C1.9877769,17.4378078 2.09511605,17.3131518 2.18236962,17.2073218 C2.33932885,17.0168041 2.46332504,16.878756 2.56170125,16.76963 C2.79093084,16.514676 2.79093084,16.514676 2.78963499,15.9015511 L2.78920304,10.8103995 C2.78920304,6.9655115 5.15452519,3.59454215 8.54110818,2.61264559 C10.0652649,2.17026209 11.7069926,2.26246244 13.1828251,2.87181615 C16.1810865,4.11148764 18.1957476,7.30185714 18.1957476,10.8103995 L18.1953157,15.9015511 C18.1940198,16.514676 18.1940198,16.514676 18.4232494,16.76963 C18.5215987,16.878756 18.6456218,17.0168041 18.8025811,17.2073218 C18.8898346,17.3131518 18.9971738,17.4378078 19.1169045,17.5763311 C20.2762538,18.9218622 21.2846642,20.2116277 20.8959377,21.205788 C20.5653353,22.0515369 19.4457521,22.0515369 19.0779481,22.0515369 Z" id="Shape"></path>
                    <path d="M10.4924618,24.9888231 C8.70487061,24.9888231 7.15379811,23.5910896 6.80397393,21.6653644 L6.69963142,21.0912576 L14.2852923,21.0912576 L14.1809498,21.6653644 C13.8311256,23.5910896 12.2800261,24.9888231 10.4924618,24.9888231 Z" id="Shape"></path>
                </g>
            </g>
        </g>
    </g>
</svg>