<svg width="45" height="45" xmlns="http://www.w3.org/2000/svg"><g fill="none" fill-rule="evenodd"><path fill="#81D8D0" d="M12 11h5v24h-5z"/><path d="M29.958 10.6h-16.25a2.082 2.082 0 0 0-2.108 2.108v20.584c0 1.185.923 2.108 2.108 2.108h16.25a2.082 2.082 0 0 0 2.109-2.108V12.708a2.082 2.082 0 0 0-2.109-2.108z" stroke="#121925" stroke-width="1.2"/><path d="M24.238 10.715v6.583c0 .113.041.194.122.242.08.049.174.05.282.002l1.53-.729a.9.9 0 0 1 .39-.091c.131 0 .263.03.396.091l1.43.727c.15.068.253.083.308.046.054-.037.08-.14.08-.308v-6.563h-4.538z" stroke="#121925" fill="#81D8D0"/><path d="M28.813 29.2c.846 0 .838-1.2 0-1.2h-8.157a.602.602 0 0 0 0 1.2h8.157zM28.813 31.2c.846 0 .838-1.2 0-1.2h-8.157a.602.602 0 0 0 0 1.2h8.157z" fill="#121925"/></g></svg>
