<svg width="13" height="13" xmlns="http://www.w3.org/2000/svg"><g fill-rule="nonzero" fill="none"><path d="M6.48.69c-1.51 0-2.877.528-3.918 1.418C1.312 3.175.532 4.762.532 6.576c0 3.326 2.235 5.887 5.561 5.887s6.615-2.292 6.615-5.618c0-3.327-2.901-6.156-6.227-6.156z" fill="#FFF"/><path d="M0 6.5C0 10.075 2.925 13 6.5 13S13 10.075 13 6.5 10.075 0 6.5 0 0 2.925 0 6.5zm11.96 0c0 3.055-2.47 5.46-5.46 5.46A5.451 5.451 0 0 1 1.04 6.5c0-3.055 2.47-5.46 5.46-5.46 3.055 0 5.46 2.405 5.46 5.46z" fill="#F7827C"/><path fill="#F7827C" d="M6 8h1V3H6z"/><path fill="#F7827C" d="M6 8h4V7H6z"/></g></svg>
