<svg width="20" height="20" xmlns="http://www.w3.org/2000/svg"><g fill="none" fill-rule="evenodd"><path d="M18.217 1.923h-1.642c-.022 0-.055-.01-.078-.01-.033 0-.055.01-.088.01H10.74V.913c0-.498-.421-.909-.92-.909-.078 0-.156.011-.222.011-.078 0-.156-.01-.244-.01-.5 0-.91.41-.91.909v1.01H2.92a.646.646 0 0 0-.21-.034.646.646 0 0 0-.212.033H.868c-.5 0-.854.2-.854.71 0 .5.344.777.854.777h1.054l.01 14.753c.045.965.766 1.741 1.753 1.741h.91v.012l10.017-.012h.91c1.009 0 1.719-.81 1.719-1.819L17.229 3.4h.977c.499 0 .91-.278.91-.777.01-.499-.4-.699-.9-.699z" fill="#F7827C" fill-rule="nonzero"/><path d="M15.71 16.577c.01 1.198-.222 1.641-1.032 1.775l-10.35.01c-.51-.11-.754-.365-.853-.92V3.42L15.71 3.41l.01 14.942-.01-1.775z" fill="#FFF"/><path d="M7.302 4.974a.767.767 0 0 0-.766.765v10.327a.767.767 0 0 0 1.53 0V5.74a.767.767 0 0 0-.764-.765zM11.894 4.974a.767.767 0 0 0-.766.765v10.327a.767.767 0 0 0 1.53 0L12.66 5.74a.767.767 0 0 0-.765-.765z" fill="#F7827C"/></g></svg>
