<svg width="45" height="45" xmlns="http://www.w3.org/2000/svg"><g fill="none" fill-rule="evenodd"><path d="M9.156 12.022h2.31v1.156h-2.31v1.155h3.466v1.156H9.156v1.155h2.31V17.8h-2.31v1.156h2.31v1.155h-2.31v1.156h3.466v1.155H9.156v1.156h2.31v1.155h-2.31v1.156h2.31v1.155h-2.31V28.2h3.466v1.156H9.156v1.155h2.31v1.156h-2.31v1.155h2.31v1.156h-2.31v.866h6.933V11.156H9.156v.866zM32.844 33.69a1.733 1.733 0 1 1 0-3.467 1.733 1.733 0 0 1 0 3.467zm.373-17.301l1.85 1.205-.63.968-1.85-1.205-.63.969 2.817 1.835-.63.968-2.819-1.835-.63.968 1.85 1.205-.631.968-1.85-1.204-.63.968 1.849 1.204-.63.968-1.85-1.204-.63.969 2.817 1.834-.63.969-2.818-1.835-.63.968 1.848 1.204-.63.969-1.849-1.204-.63.968 1.848 1.204-.631.968-1.848-1.203-.63.968 2.816 1.834-.631.968-2.816-1.834-.63.969 1.847 1.203-.63.968-1.848-1.203-1.299 1.994h14.534v-22.32l-2.516 3.864zm-.373 14.99a.578.578 0 1 0 0 1.155.578.578 0 0 0 0-1.155z" fill="#FFF"/><path fill="#81D8D0" d="M14.356 11.156h1.733v23.689h-1.733zM32.844 33.689a1.733 1.733 0 1 1 0-3.467 1.733 1.733 0 0 1 0 3.467m0-5.778a4.044 4.044 0 0 0-2.827 6.933h5.716v-5.716a4.03 4.03 0 0 0-2.889-1.217"/><path d="M21.25 34.844l1.304-1.994s1.112.72 1.854 1.203c.743.484 1.375-.485.633-.968s-1.855-1.203-1.855-1.203l.634-.969 2.826 1.834c.74.481 1.387-.477.633-.968-.753-.491-2.826-1.834-2.826-1.834l.633-.968s1.121.726 1.854 1.203c.734.477 1.375-.485.634-.968-.742-.483-1.856-1.204-1.856-1.204l.633-.968s1.138.737 1.856 1.204a.581.581 0 0 0 .633-.969c-.713-.464-1.855-1.204-1.855-1.204l.632-.968s2.087 1.352 2.828 1.835c.74.483 1.385-.479.633-.969s-2.828-1.834-2.828-1.834l.633-.969 1.856 1.204c.669.435 1.313-.525.633-.968l-1.856-1.204.633-.968 1.857 1.204c.767.498 1.377-.484.633-.968-.745-.485-1.857-1.205-1.857-1.205l.633-.968 2.829 1.835c.683.444 1.322-.519.633-.968-.69-.45-2.829-1.835-2.829-1.835l.633-.969s1.225.81 1.857 1.205c.631.395 1.334-.51.633-.968-.7-.458-1.857-1.205-1.857-1.205l2.526-3.864v22.32H21.25zm14.685-24.581L19.694 35.107a.578.578 0 0 0 .486.893h16.24c.32 0 .58-.259.58-.578V10.578a.579.579 0 0 0-1.065-.315zM32.36 31.956c0-.32.26-.578.58-.578a.579.579 0 1 1 0 1.155.579.579 0 0 1-.58-.577zm-1.16 0c0 .957.779 1.733 1.74 1.733s1.74-.776 1.74-1.733c0-.958-.779-1.734-1.74-1.734s-1.74.776-1.74 1.734zM9.16 34.844v-.866h2.32c.812 0 .793-1.156 0-1.156H9.16v-1.155h2.32c.466 0 .662-.33.654-.598-.007-.27-.214-.558-.654-.558H9.16v-1.155h3.48c.832 0 .87-1.156 0-1.156H9.16v-1.156s1.538.005 2.32 0c.782-.004.794-1.155 0-1.155H9.16v-1.156h2.32c.807 0 .783-1.155 0-1.155H9.16v-1.156h3.035c.314 0 .574-.292.57-.59a.585.585 0 0 0-.57-.565H9.16V20.11h2.32a.57.57 0 0 0 .562-.59c-.006-.284-.234-.565-.562-.565H9.16V17.8h2.32c.805 0 .782-1.156 0-1.156H9.16V15.49h3.48c.86 0 .858-1.156 0-1.156H9.16v-1.155h2.32a.576.576 0 0 0 .589-.591.587.587 0 0 0-.589-.565H9.16v-.866h6.96v23.688H9.16zM9.16 10C8.52 10 8 10.517 8 11.156v23.688C8 35.483 8.52 36 9.16 36h6.96c.64 0 1.16-.517 1.16-1.156V11.156c0-.639-.52-1.156-1.16-1.156H9.16z" opacity=".851" fill="#000"/></g></svg>
