<svg width="42" height="42" xmlns="http://www.w3.org/2000/svg"><g fill="none" fill-rule="evenodd"><rect fill="#F3AF4E" width="42" height="42" rx="4"/><g fill-rule="nonzero" fill="#FFF"><path d="M21.352 17.259h.49v.979h-.49v-.98zm-.98-1.714h.49v.98h-.49v-.98zm-6.118 5.875a.245.245 0 0 0-.245.244v.245c0 .147.098.245.245.245H27.47a.245.245 0 0 0 .244-.245v-.245c0-.147-.098-.244-.244-.244H14.254zM27.47 6H14.254a.245.245 0 0 0-.245.245v.245c0 .146.098.244.245.244H27.47a.245.245 0 0 0 .244-.244v-.245c0-.147-.098-.245-.244-.245z"/><path d="M15.967 10.16c0 .27.171.637.367.809l3.451 3.108-3.45 3.108a1.24 1.24 0 0 0-.368.808v3.427h9.79v-3.427c0-.27-.171-.636-.367-.808l-3.45-3.108 3.45-3.108a1.24 1.24 0 0 0 .367-.808V6.734h-9.79v3.427zm8.762 7.735l.05.098v2.448h-7.833v-2.448l.05-.098 3.866-3.475 3.867 3.475zM16.946 7.713h7.832v2.448l-.049.098-3.867 3.475-3.867-3.475-.049-.098V7.713z"/></g><text font-family="PingFangSC-Regular, PingFang SC" font-size="10" fill="#FFF"><tspan x="6" y="35">待接单</tspan></text></g></svg>
