<svg width="45" height="45" xmlns="http://www.w3.org/2000/svg"><g fill="none" fill-rule="evenodd"><path fill="#81D8D0" d="M6.944 31h31.697v3H6.944zM22.776 15.126c.782 0 1.776-.482 1.776-1.31 0-.536-.383-1.4-.994-1.735-.334-.183-.865 0-1.141 0-.783 0-1.417.672-1.417 1.5 0 .829.994 1.545 1.776 1.545z"/><path d="M37.66 30.107h-1.169c-.287-7.64-5.637-13.128-12.499-13.812v-.612c.893-.594 1.319-1.52 1.04-2.635-.279-1.114-1.193-1.884-2.235-1.883-1.093-.001-2.007.77-2.286 1.883-.279 1.114.147 2.04 1.04 2.635v.626c-6.868.67-12.218 6.154-12.513 13.798h-1.17c-.49 0-.96.216-1.306.602-.346.386-.538.91-.535 1.454v.768c0 .541.194 1.061.54 1.444.345.383.814.597 1.302.596H37.66c1.016 0 1.84-.913 1.84-2.04v-.768a2.162 2.162 0 0 0-.535-1.453 1.752 1.752 0 0 0-1.305-.603zM21.678 12.632c.246-.297.66-.528 1.076-.528h.054c.421-.002.806.163 1.056.45.305.348.439.743.443 1.104.004.382-.251 1.052-.822 1.284-.223.092-.35.45-.35.703v.634l-.71-.016v-.618c-.003-.255-.101-.646-.328-.733-.488-.199-.788-.7-.788-1.254 0-.39.095-.697.369-1.026zm16.5 20.873a.695.695 0 0 1-.518.236H7.87c-.403 0-.73-.363-.73-.81v-.768c0-.448.327-.811.73-.811h20.8c.305 0 .554-.276.554-.615 0-.34-.249-.615-.555-.615H10.146c.304-7.454 5.814-12.602 12.536-12.64h.154c6.716.04 12.233 5.179 12.544 12.625l-6.932.016c-.306 0-.554.26-.554.6 0 .34.248.615.554.615h9.212c.404 0 .73.363.73.81v.768a.85.85 0 0 1-.211.59z" fill="#121925" fill-rule="nonzero"/></g></svg>
