<svg width="45" height="45" xmlns="http://www.w3.org/2000/svg"><g fill="none" fill-rule="evenodd"><path fill="#FFF" d="M25.132 22.637h-5.495v2.198h5.495z"/><path d="M26.23 24.835c0 .607-.491 1.1-1.098 1.1h-5.495a1.099 1.099 0 0 1-1.099-1.1v-.55H8.098v8.242c0 .607.493 1.1 1.1 1.1H35.57c.607 0 1.1-.493 1.1-1.1v-8.241H26.23v.55z" fill="#FFF"/><path d="M35.571 16.593H9.198c-.607 0-1.1.492-1.1 1.1v5.494h10.44v-.55c0-.607.492-1.099 1.1-1.099h5.494c.607 0 1.099.492 1.099 1.1v.549h10.44v-5.495c0-.607-.493-1.099-1.1-1.099z" fill="#81D8D0"/><path d="M26.78 11.099H17.99c-.607 0-1.099.492-1.099 1.099v3.297h1.099v-3.297h8.791v3.297h1.1v-3.297c0-.607-.493-1.1-1.1-1.1M19.637 22.637h5.495v2.198h-5.495z" fill="#FFF"/><path d="M36.67 23.187H26.23v-.55c0-.607-.491-1.099-1.098-1.099h-5.495c-.607 0-1.099.492-1.099 1.1v.549H8.098v-5.495c0-.607.493-1.099 1.1-1.099H35.57c.607 0 1.1.492 1.1 1.1v5.494zm-17.033-.55h5.495v2.198h-5.495v-2.198zm17.033 9.89c0 .607-.492 1.1-1.099 1.1H9.198a1.099 1.099 0 0 1-1.1-1.1v-8.241h10.44v.55c0 .606.492 1.098 1.1 1.098h5.494c.607 0 1.099-.492 1.099-1.099v-.55h10.44v8.242zM25.681 15.495h-6.593v-2.198h6.593v2.198zm-8.79-3.297c0-.607.491-1.1 1.098-1.1h8.791c.607 0 1.1.493 1.1 1.1v3.297h-1.1v-3.297H17.99v3.297H16.89v-3.297zm18.68 3.297h-6.593v-3.297A2.198 2.198 0 0 0 26.78 10H17.99a2.198 2.198 0 0 0-2.198 2.198v3.297H9.198A2.198 2.198 0 0 0 7 17.692v14.835c0 1.214.984 2.198 2.198 2.198H35.57a2.198 2.198 0 0 0 2.198-2.198V17.692a2.198 2.198 0 0 0-2.198-2.197z" opacity=".851" fill="#000"/></g></svg>
