<svg width="45" height="45" xmlns="http://www.w3.org/2000/svg"><g fill="none" fill-rule="evenodd"><path d="M25.308 20.278c-.333.005-.7-.164-.963-.58l-1.505-2.36-3.103 3.077 2.879 1.515c1.182.57 1.007 1.61 1.007 1.61v6.523c0 .733-.602 1.335-1.34 1.335-.734 0-1.33-.602-1.33-1.335v-5.221l-4.992-2.775a1.946 1.946 0 0 1-1.001-1.696c0-.498.18-.958.498-1.297l4.903-4.91c.602-.689 1.45-.58 1.45-.58 1.03 0 1.566.898 1.566.898l2.544 3.99 3.87-.006c1.384 0 1.384 1.812 0 1.812h-4.482z" stroke="#262626" stroke-width="1.2"/><path d="M25.21 14.652c1.28 0 2.32-1.029 2.32-2.31 0-1.28-1.04-2.32-2.32-2.32a2.32 2.32 0 0 0-2.315 2.32c0 1.281 1.04 2.31 2.315 2.31z" stroke="#262626" stroke-width="1.2" fill="#FFF"/><path d="M31.481 22.91a6.32 6.32 0 0 0-6.32 6.32 6.315 6.315 0 0 0 6.32 6.316c3.481 0 6.31-2.824 6.31-6.315 0-3.497-2.829-6.321-6.31-6.321zM13.334 22.91c-3.475 0-6.31 2.83-6.31 6.32a6.317 6.317 0 0 0 6.31 6.316 6.317 6.317 0 0 0 6.327-6.315c0-3.492-2.83-6.321-6.327-6.321z" stroke="#262626"/><path d="M31.476 33.828a4.595 4.595 0 0 1-4.591-4.597 4.595 4.595 0 0 1 4.591-4.597 4.6 4.6 0 0 1 4.597 4.597 4.6 4.6 0 0 1-4.597 4.597zM13.34 33.828a4.595 4.595 0 0 1-4.592-4.597 4.599 4.599 0 0 1 4.592-4.597 4.596 4.596 0 1 1 0 9.194z" fill="#81D8D0"/><path d="M13.399 28.1a1 1 0 1 0 .003 2.001A1 1 0 0 0 13.4 28.1zM31.599 28.1a1 1 0 1 0 .003 2.001A1 1 0 0 0 31.6 28.1z" stroke="#262626" fill="#FFF"/></g></svg>
