<svg width="42" height="42" xmlns="http://www.w3.org/2000/svg"><g fill="none" fill-rule="evenodd"><rect fill="#A6A6A6" width="42" height="42" rx="4"/><g fill-rule="nonzero" fill="#FFF"><path d="M8.992 22.98l.673 2.695c0 .449.225.449.674.449L15.053 25c.225 0 .45-.224.45-.224.224-.225 0-.898-.225-1.796h.673c.225 1.122.225 1.796 0 2.245-.224.224-.449.449-.673.449l-4.94 1.347c-.673.224-1.122 0-1.346-.898l-1.123-4.939.674-.224.224 1.346 4.94-1.122-.674-2.245-5.837 1.347-.225-.673 6.735-1.572.898 3.592-5.612 1.347zM17.971 16.92c0 .449 0 .898-.224 1.347l1.796-.45-.225-1.795h.674l.449 1.571 2.918-.898.225.674-3.143.898.224.673c0 .45.225.898.225 1.347l3.816-.898.225.674-3.592.449c.673 1.122 2.245 2.02 4.265 2.244l-.224.674c-2.245-.449-3.592-1.122-4.49-2.47 0 .674-.225 1.123-.45 1.797-.448.897-1.346 1.795-2.693 2.693l-.224-.673c1.346-.898 2.244-1.571 2.469-2.47.224-.448.224-.897.224-1.346l-3.367.673-.224-.673 3.367-.898c0-.45 0-.898-.225-1.347v-.45l-2.245.45c0 .673-.224 1.347-.673 1.796l-.673-.45c.673-.897.897-2.02 1.122-3.367l.673.225zM27.4 15.124l1.796-.45.224.674-4.49 1.123-.224-.674 1.796-.449c-.224-.224-.449-.449-.673-.898l.673-.224c.449.224.674.673.898.898zm-.449 1.571c-.225.898-.449 1.796-.898 2.47l-.673-.225c.449-.673.673-1.571.898-2.47l.673.225zm1.122 2.694c0-.449.225-.898.225-1.571h.673c0 .673 0 1.122-.224 1.796.449.449.898.673 1.347.898l-.225.673c-.449-.224-.898-.673-1.122-.898-.449.898-.898 1.796-1.571 2.47l-.45-.45c.674-.673 1.347-1.57 1.572-2.469l-1.347-.673.225-.45c0 .225.448.45.897.674zm-.673-2.918l.449-.45c.449.225.898.45 1.571.899l-.224.449c-.674-.225-1.123-.45-1.796-.898zm2.918.673c-.224.45-.224.674-.449 1.123l-.449-.45c.45-1.122.45-2.693.225-4.265h.673v1.572l2.47-.674.224.674h-.673c.224 1.347.224 2.694 0 3.816.673.674 1.571 1.123 2.245 1.347l-.225.674c-.898-.225-1.571-.674-2.245-1.347-.449.898-.898 1.796-1.796 2.469l-.449-.449c.898-.673 1.347-1.571 1.796-2.47l-1.347-2.02zm0-.898c.45.898.898 1.572 1.347 2.245.225-.898.225-2.02 0-3.143l-1.347.45c.225 0 .225.224 0 .448z"/><path d="M21.563 38.47h-1.571c-.898 0-1.572-.224-2.245-.448h-.449l-.673-.225c-.225 0-.45 0-.674-.224-.224 0-.449 0-.449-.225-.673-.224-1.571-.449-2.47-.673-.673-.225-1.346-.674-2.244-1.123-.674-.449-1.347-.898-2.02-1.571-.674-.45-1.123-1.123-1.797-2.02-.897-1.347-1.795-2.919-2.469-4.715l-.224-.673c0-.225 0-.225-.225-.45V25.9c0-.224-.224-.449-.224-.673V25v-.449c0-.224-.225-.449-.225-.898v-.224c0-.45-.224-.898-.449-1.347-.449-3.367.225-6.96 1.796-10.102.898-1.347 1.796-2.694 2.918-3.816l.898-.898.45-.45c.224-.224.448-.224.673-.448.673-.45 1.347-.898 2.245-1.347l1.347-.674c.224 0 .449-.224.673-.224.674-.225 1.347-.45 1.796-.674 0 0 .225 0 .449-.224h.225c.224 0 .449-.225.897-.225H20.89c1.347 0 2.918.225 4.265.45 1.347.448 2.694.897 3.816 1.57 1.123.45 2.02 1.348 3.143 2.246.898.898 1.796 1.796 2.245 2.469 1.123 1.571 2.245 3.143 2.919 4.714.673 1.347.898 2.694.898 3.368v5.836c0 .674-.225 1.572-.45 2.47v.674l-.448.448-.674 1.347c-.449 1.123-1.122 2.02-1.796 2.918-.673.898-1.571 1.796-2.694 2.694-.449.225-.673.45-1.122.674-.225.224-.45.224-.674.449l-.224.224c-.225 0-.225.225-.45.225-.224.224-.448.224-.673.449 0 0-.224 0-.224.224-1.123.674-2.47 1.123-4.04 1.572-.225 0-.45 0-.899.224h-.898-.224c-.45.225-.898.225-1.123.225zM3.83 23.88c0 .224.224.449.224.898V25c.225.898.674 1.572.898 2.245.45.898.898 1.572 1.347 2.245.449.674 1.122 1.347 1.571 1.796 1.123 1.123 2.245 2.02 3.592 3.143l2.02 1.347c.674.449 1.348.898 2.021 1.122 1.123.45 2.245.674 3.816.674H23.36c.224 0 .448 0 .673-.225 1.347-.224 2.694-.673 3.816-1.347.673-.449 1.347-.673 1.796-.898.449-.224.898-.673 1.122-.898l.225-.224c.898-.898 1.796-1.796 2.245-2.694.898-1.122 1.347-1.796 1.796-2.694.898-1.571 1.571-3.367 2.02-4.939.225-1.122.449-2.244.449-3.367v-.673-.449-.225-.224s0-.225-.224-.225c0-.224 0-.224-.225-.449-.224-1.122-.449-2.245-.898-3.143-.224-.673-.449-1.347-1.122-2.245-.45-.898-.898-1.571-1.572-2.469-.673-.898-1.571-1.571-2.245-2.245-.898-.673-1.796-1.347-3.143-1.796-1.122-.673-2.469-1.122-3.591-1.347-.674-.898-2.02-1.122-3.592-1.122h-.45-.224H16.85h-.224c-1.572.449-3.143 1.122-4.266 2.02-.673.45-1.347 1.123-2.02 1.572L8.767 8.838c-.673.449-1.122 1.123-1.571 1.796-.449.673-.898 1.122-1.347 2.02-1.571 2.919-2.245 6.286-2.02 9.653v1.572c0-.225 0 0 0 0z"/><path d="M8.094 17.369v-.45c0-.224 0-.448.224-.897 0-.45.225-.898.45-1.347.224-.225.224-.45.448-.674 0-.224.225-.449.45-.673 0 0 0-.225.224-.225v-.224c.224-.225.449-.898.898-1.347l.898-.898c.449-.225.673-.449.898-.673 0 0 .224 0 .224-.225.225-.225.674-.449.898-.673.225 0 .45-.225.45-.225.224 0 .448-.224.673-.224.224 0 .449-.225.673-.225.225 0 .225 0 .449-.224h.225c.224 0 .224 0 .449-.225h.224c.225 0 .225 0 .449-.224h.449c.224 0 .449-.225.898-.225H21.114v-.449h.225c.449 0 .673 0 1.122.225.225 0 .45 0 .674.224h.673c.45 0 .674.225 1.123.225.673.224 1.347.449 2.02.897.225 0 .225.225.449.225l.224.224.674.45c.449.448.898.673 1.122.897l.674.674v.224s-.225 0-.225-.224l-.673-.674c-.225-.224-.674-.449-1.123-.898-.224.225-.449 0-.673-.224-.225 0-.225-.225-.449-.225-.225 0-.225-.224-.449-.224l-.449-.225h-.224-.225c-.449-.224-.673-.224-1.122-.449-.45 0-.674-.224-1.123-.448-.224 0-.673-.225-1.122-.225h-.225-.224-.45H18.645c-.224 0-.448 0-.897.225h-.898-.225c-.224 0-.449.224-.673.224l-1.122.898c-.225.224-.45.449-.898.673h-.225c0 .225-.224.225-.449.45-.224 0-.224.224-.449.224-.449.224-.673.449-.898.673-.224.45-.449.674-.898.898 0 .225-.224.45-.224.45s-.225.224-.225.448c-.449.225-.673.45-.673.898 0 0 0 .225-.225.225 0 .224-.224.449-.224.449v.224c0 .225-.225.45-.225.45-.449.673-.673 1.122-.673 1.346-.225.45-.225.674-.45.898v.225zM20.44 33.532h-.673-.674c-.224 0-.448 0-.673-.225h-.449-.224c-.225 0-.45 0-.674-.224H16.4c-.225 0-.225 0-.449-.225h-.449c-.225 0-.225 0-.449-.224-.224 0-.224 0-.449-.225h-.224s-.225 0-.225-.224c-.224 0-.449-.225-.673-.45-.225-.224-.898-.673-1.123-.897l-.224-.225c-.45-.448-.898-.673-1.123-.897l-.673-.674c-.225-.224-.225-.224-.225-.449 0 0 .225 0 .225.225l.673.673c.225.225.674.674 1.123.898.449.449.898.673 1.571 1.122h.674s.224 0 .224.225l.449.224h.224s.225 0 .225.225c.224 0 .224 0 .449.224h.224c.225 0 .225.225.45.225 0 0 .224 0 .448.224h.225c.224 0 .449.225.673.225h4.715c.224 0 .673 0 .898-.225h.449c.673 0 1.347-.448 2.02-.673.225 0 .225-.224.449-.224.224-.225.673-.45 1.122-.674.225-.224.45-.224.674-.449.224 0 .449-.224.449-.224.224-.225.673-.45.898-.898.224-.225.449-.674.898-.898l.673-.898c.225-.225.45-.45.674-.898.224-.225.224-.45.449-.898.224-.225.224-.45.449-.898.224-.45.449-.898.449-1.347 0-.45.224-.674.224-.898v-.225.45c0 .224 0 .673-.224.897 0 .45-.225.898-.45 1.347-.224.674-.448 1.123-.897 1.796v.225l-.225.224v.225l-.224.224c-.225.225-.45.45-.45.674l-.224.224-.898.898-.224.225s-.225 0-.225.224l-.449.45c-.224.224-.673.448-.898.673-.224.224-.449.224-.673.449-.225 0-.45.224-.45.224h-.224c-.449.225-.673.225-1.122.45-.225 0-.449.224-.673.224h-.225-.674c-.224 0-.673.224-.897.224h-1.123-.224l-1.347.45v-.001zm-1.795-.225c.224 0 .449 0 .449.225h2.694-.45-1.571-.674c-.224-.225-.224-.225-.448-.225zm-5.388-2.244c.225.224.45.449.674.449.449.224.449.224.673.448 0 0 .225 0 .225.225h.224s.225 0 .225.224c.224 0 .224 0 .449.225h.449c.224 0 .224 0 .449.224h0c-.225 0-.225-.224-.45-.224h-.224c-.224 0-.224 0-.449-.225-.224 0-.224 0-.449-.224h-.224l-.225-.449h-.224l-.225-.224c-.224-.225-.673-.225-.898-.45zm15.041-.225s0 .225 0 0c-.449.225-.674.225-.674.449-.448.225-.897.449-1.122.674-.224 0-.224.224-.449.224h-.224c.224 0 .449-.224.449-.224h.224c.225 0 .449-.225.449-.225.225 0 .449-.224.673-.224l.674-.674zm4.939-6.735c-.225.45-.225.674-.45 1.347-.224.225-.224.45-.448.898-.225.225-.225.674-.45.898-.224.45-.448.674-.673.898l-.673.898-.898.898c.449-.224.673-.673.898-.898l.224-.224c.225-.225.45-.45.45-.674l.224-.224v-.225l.224-.224v-.225c.45-.449.674-1.122.898-1.571.45-.674.45-1.123.674-1.572z"/></g></g></svg>
