<svg width="72" height="72" xmlns="http://www.w3.org/2000/svg"><path d="M36 72C16.15 72 0 55.85 0 36S16.15 0 36 0s36 16.15 36 36-16.15 36-36 36zm21.384-49.71c-1.016-.99-3.345-1.524-4.346-.527l-21.766 21.36L19.663 31.73c-1.001-1.011-3.09-.143-4.106.833a2.502 2.502 0 0 0-.051 3.595l13.829 13.848c.007.008.014.008.021.015.008.007.008.014.015.021.16.157.37.256.559.363.101.057.18.143.283.178.311.128.645.185.979.185.326 0 .66-.064.972-.185.102-.043.174-.128.276-.17.189-.108.399-.2.559-.364.007-.007.007-.014.014-.021.007-.007.015-.007.022-.014l24.37-24.144a2.492 2.492 0 0 0-.021-3.581z" fill-rule="nonzero" fill="#EFEFEF"/></svg>
