<svg width="20" height="20" xmlns="http://www.w3.org/2000/svg"><g fill="none" fill-rule="evenodd"><g transform="rotate(45 7.59 11.584)" fill="#FFF"><circle cx="7.151" cy="7.151" r="7.151"/><circle transform="rotate(45 7.548 7.548)" cx="7.548" cy="7.548" r="5.164"/></g><path d="M15.671 9.878a.774.774 0 0 0-.774-.775l-4.127.003H9.23l-4.391.003a.774.774 0 0 0 0 1.547l4.39-.002h1.54l4.128-.002a.774.774 0 0 0 .774-.774zM3.462 16.417C-.143 12.81-.14 6.96 3.47 3.35 7.08-.26 12.93-.264 16.537 3.343c3.606 3.606 3.604 9.457-.006 13.068-3.611 3.61-9.462 3.612-13.069.006z" fill-rule="nonzero" fill="#E64340"/></g></svg>
