<svg width="15" height="15" xmlns="http://www.w3.org/2000/svg"><path d="M7.5 15C3.364 15 0 11.636 0 7.5S3.365 0 7.5 0C11.636 0 15 3.365 15 7.5c0 4.136-3.364 7.5-7.5 7.5zm4.348-10.389c-.21-.208-.691-.321-.898-.111L6.45 9l-2.4-2.4c-.207-.213-.639-.03-.849.176a.534.534 0 0 0-.01.757L6.05 10.45l.004.004.003.004c.033.033.076.054.115.076.022.012.038.03.059.038a.55.55 0 0 0 .404 0c.02-.009.035-.027.056-.036.04-.022.083-.042.116-.076l.003-.005.005-.003 5.038-5.087a.532.532 0 0 0-.005-.754z" fill-rule="nonzero" fill="#81D8D0"/></svg>
