<?xml version="1.0" encoding="UTF-8"?>
<svg width="38px" height="38px" viewBox="0 0 38 38" version="1.1" xmlns="http://www.w3.org/2000/svg" xmlns:xlink="http://www.w3.org/1999/xlink">
    <!-- Generator: Sketch 49.3 (51167) - http://www.bohemiancoding.com/sketch -->
    <title>Group 10 Copy</title>
    <desc>Created with Sketch.</desc>
    <defs></defs>
    <g id="最青春2.0学生端优化版Fan" stroke="none" stroke-width="1" fill="none" fill-rule="evenodd">
        <rect id="Rectangle-22" stroke="#999999" stroke-width="6" x="-172" y="-1246" width="944" height="1417"></rect>
        <g id="Group-10-Copy">
            <circle id="Oval" fill="#81D8D0" cx="19" cy="19" r="19"></circle>
            <path d="M19,38 C8.50658975,38 0,29.4934102 0,19 C0,8.50658975 8.50658975,0 19,0 C29.4934102,0 38,8.50658975 38,19 C38,29.4934102 29.4934102,38 19,38 Z M19,37 C28.9411255,37 37,28.9411255 37,19 C37,9.0588745 28.9411255,1 19,1 C9.0588745,1 1,9.0588745 1,19 C1,28.9411255 9.0588745,37 19,37 Z" id="Oval-7" fill="#353535" fill-rule="nonzero"></path>
            <path d="M3.37699895,14.9714175 C3.05126642,14.8422571 2.890831,14.4696788 3.01237299,14.1368423 C4.01387896,11.4791175 5.70906721,9.0322277 7.99891826,7.39288344 C9.06787751,6.62919905 10.1428098,5.96422613 11.2401929,5.46434866 C12.548449,4.86841483 13.8947248,4.49117916 15.3851203,4.24117263 C17.5558983,3.87703528 20.4681559,4.23140523 22.4906146,5.34417224 C22.7969004,5.51307438 23.0151875,5.88056144 22.8704379,6.16430311 C22.7256883,6.44804478 22.3565517,6.58831311 22.0502659,6.41941097 C20.212551,5.40599816 17.7084514,5.26186893 15.7936194,5.41934675 C15.1107554,5.47550622 14.4698202,5.65181429 13.797287,5.86382407 C13.1595284,6.06487152 12.4917781,6.23742043 11.8955417,6.52296593 C10.7435036,7.0746922 10.1346611,7.40155879 9.10262664,8.14070161 C8.35993637,8.67139246 7.29676949,9.68737272 6.72533998,10.3798103 C6.20357085,11.0120712 5.72869982,11.694074 5.31339229,12.4146437 C4.9062437,13.1210573 4.50037494,13.8702251 4.1937611,14.603807 C4.08828085,14.8561714 3.85830522,15.0161269 3.60549788,15.0161269 C3.52771101,15.0161269 3.45478582,15.0012238 3.37699895,14.9714175 Z" id="Shape" fill="#F2F9F4" fill-rule="nonzero" transform="translate(12.944011, 9.559767) rotate(-10.000000) translate(-12.944011, -9.559767) "></path>
            <path d="M20,20.5 L20,24.2815742 C20,24.9457829 19.5529412,25.5 19,25.5 C18.4470588,25.5 18,24.9072507 18,24.2815742 L18,20.5 L14.3209601,20.5 C13.5524866,20.5 13,20.0529412 13,19.5 C13,18.9470588 13.5440649,18.5 14.3209601,18.5 L18,18.5 L18,14.8209601 C18,14.0524866 18.4470588,13.5 19,13.5 C19.5529412,13.5 20,14.0440649 20,14.8209601 L20,18.5 L23.7815742,18.5 C24.4457829,18.5 25,18.9470588 25,19.5 C25,20.0529412 24.4072507,20.5 23.7815742,20.5 L20,20.5 Z" id="Combined-Shape" fill="#2B3F3D"></path>
        </g>
    </g>
</svg>