<svg width="30" height="30" xmlns="http://www.w3.org/2000/svg"><g fill="none" fill-rule="evenodd"><path d="M15.322 2.905c-.057-.035-.348-.139-.431-.139a1 1 0 0 0-.425.146c.02-.014-2.988 2.427-9.024 7.323v13.266c0 1.08.015 1.9.456 2.72.442.823 1.452 1.106 3.067 1.106h11.94c.806 0 1.533-.05 2.091-.253.518-.19.886-.52 1.126-.853.492-.644.629-1.582.629-2.72V10.234l-9.43-7.33z" fill="#353535" fill-rule="nonzero"/><path d="M23.667 10.725c.03.424.03 4.797 0 13.12 0 .972-.278 1.51-.601 1.865-.374.41-.86.557-1.912.557l-6.273.009H8.832c-.952 0-1.502-.27-1.805-.566-.321-.315-.579-.787-.579-1.865.05-8.746.05-13.158 0-13.235l8.433-6.748 8.786 6.863z" fill="#FFF"/><path d="M11.893 15.931h5.9c1.35 0 1.586.019 1.586 1.01v8.473h-8.605V16.94c0-.991-.233-1.01 1.12-1.01z" fill="#FFF"/><path d="M9.3 25.235H20.655c1.486.004 2.006-.555 2.006-2.006V11.115c0-.054-2.594-2.092-7.783-6.115l-7.457 6.115c.047.072.047 4.11 0 12.114 0 1.768.36 2 1.879 2.006z" fill="#81D8D0" fill-rule="nonzero"/><path fill="#353535" d="M14.207 21.103h1.724v4.127h-1.724z"/><path d="M13.103 7.575l-4.532 3.703c-.086.068-.07.176-.07.291v4.184c0 .203.156.368.348.368a.358.358 0 0 0 .347-.368V11.75l4.372-3.59c.153-.124.123-.356.007-.516a.328.328 0 0 0-.265-.144.32.32 0 0 0-.207.076zM8.5 17.43v.446c0 .16.066.306.172.387 0 .246.154.445.345.445.19 0 .345-.2.345-.446a.482.482 0 0 0-.17-.385l-.002-.447c0-.248-.154-.446-.344-.446-.192 0-.346.2-.346.446z" fill="#D9F9F6" fill-rule="nonzero"/></g></svg>
