<svg width="30" height="30" xmlns="http://www.w3.org/2000/svg"><g transform="translate(1 4)" fill="none" fill-rule="evenodd"><circle fill="#FFF" cx="13.982" cy="10.875" r="10.875"/><circle stroke="#353535" cx="13.982" cy="10.875" r="10.875"/><path d="M5.647 18.792C2.542 18.464.578 17.364.117 15.7c-.231-.832-.071-1.732.473-2.678.49-.85 1.28-1.71 2.348-2.56.222-.176.144.123.32.345.177.222.358.437.135.614-.968.77-1.49 1.378-1.914 2.113-.402.696-.527 1.334-.373 1.892.336 1.214 2.031 2.069 4.65 2.345 2.82.3 6.362-.088 9.978-1.088 3.616-1 6.853-2.49 9.118-4.194 2.106-1.585 3.12-3.189 2.784-4.403-.302-1.09-1.678-1.886-3.875-2.242a.512.512 0 1 1 .162-1.011c1.245.202 2.274.54 3.058 1.008.871.519 1.424 1.183 1.644 1.975.461 1.664-.661 3.616-3.155 5.496-2.365 1.781-5.727 3.331-9.462 4.365-2.907.798-5.776 1.217-8.295 1.217-.72 0-1.41-.034-2.066-.102z" fill="#353535" fill-rule="nonzero"/></g></svg>
