<svg width="21" height="24" xmlns="http://www.w3.org/2000/svg"><g fill="none" fill-rule="evenodd"><path d="M0 0h24v24H0z"/><path stroke="#222" d="M16.313 3.859L4.129 11.213l9.801 6.49"/><path d="M16.393 6.879a3.084 3.084 0 0 1-3.08-3.08 3.084 3.084 0 0 1 3.08-3.08 3.084 3.084 0 0 1 3.08 3.08 3.084 3.084 0 0 1-3.08 3.08z" fill="#D9F9F6"/><path d="M12.897 3.843c0-1.96 1.572-3.619 3.496-3.619s3.53 1.597 3.53 3.574c0 1.978-1.631 3.59-3.53 3.59-1.737 0-3.496-1.583-3.496-3.545zm3.496-2.44a2.398 2.398 0 0 0-2.396 2.395 2.398 2.398 0 0 0 2.396 2.396 2.398 2.398 0 0 0 2.396-2.396 2.398 2.398 0 0 0-2.396-2.395z" fill="#222"/><path d="M3.886 14.65a3.084 3.084 0 0 1-3.08-3.08 3.084 3.084 0 0 1 3.08-3.08 3.084 3.084 0 0 1 3.08 3.08 3.084 3.084 0 0 1-3.08 3.08z" fill="#D9F9F6"/><path d="M.298 11.594c0-1.96 1.396-3.596 3.588-3.596S7.4 9.239 7.4 11.57c0 2.33-1.473 3.553-3.51 3.553-2.29 0-3.592-1.569-3.592-3.53zm3.588-2.42A2.398 2.398 0 0 0 1.49 11.57a2.398 2.398 0 0 0 2.396 2.396A2.398 2.398 0 0 0 6.28 11.57a2.398 2.398 0 0 0-2.395-2.396zM12.629 19.307a3.769 3.769 0 0 1 3.764-3.764 3.769 3.769 0 0 1 3.765 3.764c0 .378-.211.634-.589.634s-.584-.256-.584-.634c0-1.32-1.27-2.553-2.592-2.553-1.32 0-2.555 1.232-2.555 2.553s1.234 2.572 2.555 2.572c.436 0 .975-.177 1.347-.402.324-.196.676-.137.872.186.195.324.048.672-.275.868a3.755 3.755 0 0 1-1.944.541 3.769 3.769 0 0 1-3.764-3.765z" fill="#222"/></g></svg>
