<svg width="15" height="13" xmlns="http://www.w3.org/2000/svg"><g fill="none" fill-rule="evenodd"><path d="M7.478 12.955a.27.27 0 0 1-.157-.05C7.037 12.702.358 7.922.014 3.92c-.087-1.01.233-1.889.95-2.615C1.823.44 2.727 0 3.654 0c1.89 0 3.305 1.807 3.836 2.6.564-.768 2.055-2.515 3.93-2.515.905 0 1.77.41 2.572 1.22.756.765 1.09 1.684.992 2.731-.376 4.032-7.067 8.675-7.352 8.87a.27.27 0 0 1-.153.049z" fill="#353535" fill-rule="nonzero"/><path d="M1.584 2.122c-.538.634-.611 1.19-.53 2.05.314 3.346 5.444 6.962 6.43 7.69.99-.71 6.202-4.494 6.516-7.862.08-.867-.11-1.434-.74-2.07-.678-.687-1.201-.93-1.939-.93-2 0-3.58 2.944-3.597 2.97a.266.266 0 0 1-.456-.01C7.253 3.932 5.745.955 3.744.955c-.424 0-.947.174-1.342.42-.311.195-.526.401-.818.746z" fill="#FFF"/></g></svg>
