<svg width="23" height="20" xmlns="http://www.w3.org/2000/svg"><g fill="none" fill-rule="evenodd"><rect fill="#000" width="22.909" height="19.636" rx="2.7"/><path d="M2.575 1h17.92c.086 0 .29.045.473.138.166.084.31.215.382.241l-9.362 9.37L1.62 1.408c.053-.014.245-.234.457-.317.221-.086.429-.092.498-.092z" fill="#94EAE2"/><path d="M20.687 18.8H3.192c-.482 0-1.057-.038-1.54-.476A2.01 2.01 0 0 1 1 16.87V2.58c0-.071.077-.497.09-.569l10.403 9.6a.733.733 0 0 0 .332.13h.193a.601.601 0 0 0 .332-.13l9.548-9.496c0 .028.102.437.102.465v14.87c-.014.746-.594 1.349-1.313 1.349z" fill="#D9F9F6"/></g></svg>
