<svg width="18" height="8" xmlns="http://www.w3.org/2000/svg"><path d="M17.772 2.836l-1.353-.99c.252-.312.49-.638.709-.981a.573.573 0 0 0-.14-.77.51.51 0 0 0-.731.148c-.823 1.278-1.905 2.335-3.133 3.061a8.01 8.01 0 0 1-8.251 0C3.645 2.578 2.563 1.521 1.741.243a.51.51 0 0 0-.73-.148.571.571 0 0 0-.141.77c.223.347.464.678.72.995l-1.36.972a.573.573 0 0 0-.14.77c.101.157.267.243.436.243.1 0 .205-.03.295-.097l1.501-1.073c.62.624 1.305 1.162 2.036 1.596.043.027.088.051.132.076l-.66 1.54a.565.565 0 0 0 .265.731.52.52 0 0 0 .216.05.526.526 0 0 0 .481-.327l.65-1.52a9.044 9.044 0 0 0 3.236.73v1.895c0 .308.222.554.513.554.292 0 .513-.248.513-.554V5.53a8.922 8.922 0 0 0 2.988-.766l.675 1.58a.526.526 0 0 0 .481.325.492.492 0 0 0 .216-.049c.265-.125.383-.453.265-.732l-.69-1.613.006-.004c.738-.436 1.427-.98 2.05-1.61l1.483 1.083a.51.51 0 0 0 .731-.14.573.573 0 0 0-.137-.768z" fill-rule="nonzero" fill="#FFF"/></svg>
