<svg width="30" height="30" xmlns="http://www.w3.org/2000/svg"><g fill="none" fill-rule="evenodd"><path d="M15.367 26.955a.643.643 0 0 1-.207-.035L4.902 23.76c-.135-.045-.501-.12-.7-.37-.18-.227-.202-.627-.202-.753V5.761c0-.201.081-.49.248-.607.167-.118.423-.202.654-.124l10.832 3.588c.256.086.266.572.266.837v16.876a.62.62 0 0 1-.266.508.638.638 0 0 1-.367.116z" fill="#353535" fill-rule="nonzero"/><path d="M15.633 26.955c.07 0 .14-.012.207-.035l10.258-3.16c.135-.045.501-.12.7-.37.18-.227.202-.627.202-.753V5.761c0-.201-.081-.49-.248-.607-.167-.118-.423-.202-.654-.124L15.266 8.618c-.256.086-.266.572-.266.837v16.876c0 .202.099.39.266.508a.638.638 0 0 0 .367.116z" fill="#353535" fill-rule="nonzero"/><path fill="#FFF" d="M5 22.726l9.997 3.116.557-16.17L5 6.209z"/><path fill="#FFF" d="M26 22.734l-10.493 3.223v-16.3L26 6.129z"/><path d="M14.68 9.392l.819.27.97-.27.08.195-.033 16.06-1.017.31c-.055.01-.1.01-.134 0L14 25.532l.68-16.14z" fill="#FFF"/></g></svg>
