<svg width="22" height="20" xmlns="http://www.w3.org/2000/svg"><g fill="none" fill-rule="evenodd"><path d="M8.27 17.125c.603-2.056 1.137-3.409 1.602-4.058 1.51-2.11 3.521-2.703 5.088-2.703 1.583 0 3.666.787 5.173 2.942.449.64.935 1.914 1.458 3.82H8.271z" fill="#D9F9F6"/><path d="M20.79 13.3c-.683-1.004-1.923-2.115-3.226-2.65l-.534-.213a4.57 4.57 0 0 0 2.5-4.082c0-2.543-2.052-4.595-4.574-4.595a4.579 4.579 0 0 0-4.573 4.573 4.531 4.531 0 0 0 2.543 4.082l-.555.214c-1.304.534-2.415 1.453-3.227 2.671a7.173 7.173 0 0 0-1.219 3.42c-.021.235.15.427.364.427a.37.37 0 0 0 .363-.342c.3-3.013 2.586-5.338 5.514-5.702.043 0 .363-.042.79-.042.3 0 .556.021.791.042h.043c1.432.216 2.598.951 3.527 1.945.916.98 1.602 2.208 1.75 3.672.022.192.243.444.508.427.265-.017.434-.213.413-.448A7.228 7.228 0 0 0 20.79 13.3z" fill="#000" fill-rule="nonzero"/><path d="M11.1 6.352A3.854 3.854 0 0 1 14.95 2.5a3.854 3.854 0 0 1 3.85 3.852 3.854 3.854 0 0 1-3.85 3.853 3.854 3.854 0 0 1-3.85-3.853z" fill="#D9F9F6"/><g><path d="M.438 19.206c.753-2.57 1.42-4.26 2.002-5.072 1.888-2.638 4.401-3.378 6.36-3.378 1.98 0 4.583.983 6.467 3.676.56.801 1.168 2.393 1.822 4.774H.44z" fill="#D9F9F6"/><path d="M16.089 14.426c-1.016-1.496-2.405-2.645-4.034-3.313l-.668-.267h-.027a5.688 5.688 0 0 0 3.152-5.102C14.512 2.564 11.948 0 8.796 0a5.723 5.723 0 0 0-5.717 5.717 5.664 5.664 0 0 0 3.179 5.102H6.23l-.668.267c-1.63.668-3.018 1.817-4.034 3.34A8.966 8.966 0 0 0 .007 18.7c-.027.294.187.534.454.534.24 0 .427-.187.454-.427.374-3.767 3.286-6.893 6.946-7.347.053 0 .454-.053.988-.053.374 0 .695.027.988.053h.054c3.553.535 6.385 3.633 6.759 7.32.026.24.213.427.454.427h.026c.268 0 .481-.24.455-.534-.134-1.496-.642-2.992-1.496-4.247z" fill="#000" fill-rule="nonzero"/><path d="M3.911 5.698A4.92 4.92 0 0 1 8.827.782a4.92 4.92 0 0 1 4.915 4.916 4.92 4.92 0 0 1-4.915 4.915A4.92 4.92 0 0 1 3.91 5.698z" fill="#D9F9F6"/></g></g></svg>
