<svg width="18" height="15" xmlns="http://www.w3.org/2000/svg"><path d="M16.924 2.034H1.09C.52 2.034.026 1.566.026 1.02.026.451.493.01 1.09.01h15.834c.571 0 1.065.467 1.065 1.012 0 .545-.468 1.013-1.065 1.013zm0 6.126H1.09C.52 8.16.026 7.692.026 7.147c0-.57.467-1.012 1.064-1.012h15.834c.571 0 1.065.467 1.065 1.012 0 .545-.468 1.013-1.065 1.013zm0 6.152H1.09c-.57 0-1.064-.468-1.064-1.013 0-.57.467-1.012 1.064-1.012h15.834c.571 0 1.065.467 1.065 1.012 0 .545-.468 1.013-1.065 1.013z" fill-rule="nonzero" fill="#3F3F3F"/></svg>
