<svg width="18" height="20" xmlns="http://www.w3.org/2000/svg"><g fill="none" fill-rule="evenodd"><path d="M.448 19.643c.77-2.629 1.453-4.358 2.047-5.188C4.426 11.757 6.997 11 9 11c2.024 0 4.687 1.006 6.614 3.76.573.82 1.194 2.447 1.864 4.883H.448z" fill="#D9F9F6"/><path d="M16.454 14.753c-1.038-1.53-2.459-2.704-4.125-3.387l-.683-.274h-.028a5.817 5.817 0 0 0 3.224-5.218C14.842 2.623 12.22 0 8.996 0a5.853 5.853 0 0 0-5.847 5.847A5.793 5.793 0 0 0 6.4 11.065h-.027l-.683.273c-1.667.683-3.088 1.858-4.126 3.415a9.17 9.17 0 0 0-1.557 4.372c-.027.3.191.546.464.546a.474.474 0 0 0 .465-.437c.382-3.852 3.36-7.049 7.103-7.513.055 0 .465-.055 1.011-.055.383 0 .71.027 1.011.055h.055c3.633.546 6.53 3.715 6.912 7.486a.474.474 0 0 0 .464.437h.028c.273 0 .492-.246.464-.546-.136-1.53-.656-3.06-1.53-4.345z" fill="#000" fill-rule="nonzero"/><path d="M4 5.827A5.031 5.031 0 0 1 9.027.8c2.76 0 5.027 2.24 5.027 5.027 0 2.76-2.24 5.027-5.027 5.027A5.031 5.031 0 0 1 4 5.827z" fill="#D9F9F6"/></g></svg>
