<svg width="52" height="52" xmlns="http://www.w3.org/2000/svg"><g transform="translate(1 1)" fill="none" fill-rule="evenodd"><circle stroke="#353535" cx="25" cy="25" r="25"/><path d="M36.057 20.328a11.945 11.945 0 0 0-2.571-3.814 11.945 11.945 0 0 0-4.164-2.712.481.481 0 0 0-.24-.091A11.986 11.986 0 0 0 25 13c-1.62 0-3.191.318-4.672.943a11.945 11.945 0 0 0-3.814 2.571 11.945 11.945 0 0 0-2.57 3.814A11.941 11.941 0 0 0 13 25c0 1.62.318 3.191.943 4.672a11.945 11.945 0 0 0 2.571 3.814 11.945 11.945 0 0 0 3.814 2.57c.075.033.15.062.227.094A11.951 11.951 0 0 0 25 37c1.62 0 3.191-.318 4.672-.943a11.945 11.945 0 0 0 3.814-2.571 11.945 11.945 0 0 0 2.57-3.814C36.683 28.192 37 26.62 37 25c0-1.62-.318-3.191-.943-4.672zm-3.261-3.124a11 11 0 0 1 2.106 2.937l-5.38 5.388v-2.138a.459.459 0 0 0 0-.24v-8.213a10.989 10.989 0 0 1 3.274 2.266zm-6.428 11.49h-2.843a.393.393 0 0 0-.096.01l-2.197-2.175v-2.983c0-.021-.003-.04-.006-.059l2.117-2.114h3.01a.437.437 0 0 0 .1-.01l2.096 2.095v3.047l-2.16 2.162c-.007.008-.015.016-.02.027zM13.973 25c0-1.253.208-2.475.61-3.627h7.386l-7.357 7.345a11.057 11.057 0 0 1-.64-3.718zm14.576-10.445v7.527l-7.414-7.414A11.047 11.047 0 0 1 25 13.973c1.227 0 2.421.2 3.55.582zm-11.345 2.649c.88-.88 1.884-1.593 2.97-2.122l5.32 5.318H14.972a10.968 10.968 0 0 1 2.232-3.196zM15.015 29.69l5.246-5.235v10.508a11.058 11.058 0 0 1-3.057-2.164 11.01 11.01 0 0 1-2.189-3.109zm6.22 5.68v-7.476l7.541 7.47a11.06 11.06 0 0 1-3.776.66 10.996 10.996 0 0 1-3.766-.654zm11.561-2.574c-.9.9-1.932 1.628-3.05 2.162l-5.345-5.292h10.595a10.926 10.926 0 0 1-2.2 3.13zm2.6-4.102H27.74l7.58-7.593c.465 1.23.705 2.547.705 3.899a10.988 10.988 0 0 1-.628 3.694z" fill-rule="nonzero" fill="#353535"/></g></svg>
