<svg width="52" height="52" xmlns="http://www.w3.org/2000/svg"><g transform="translate(1 1)" fill="none" fill-rule="evenodd"><circle stroke="#353535" cx="25" cy="25" r="25"/><path d="M24.64 19.947c.72 0 1.2-.482 1.2-1.2 0-.727-.48-1.197-1.2-1.197-.722 0-1.445.47-1.445 1.196 0 .719.724 1.2 1.444 1.2zm-6.72-2.397c-.72 0-1.448.47-1.448 1.196 0 .719.728 1.2 1.448 1.2.718 0 1.198-.481 1.198-1.2 0-.726-.48-1.196-1.198-1.196zM39 27.632c0-3.798-3.523-7.033-7.847-7.37a.427.427 0 0 0-.002-.145c-.867-4.043-5.214-7.09-10.112-7.09-5.535 0-10.039 3.86-10.039 8.603 0 2.546 1.3 4.84 3.762 6.648l-.859 2.58a.44.44 0 0 0 .612.53l3.222-1.613.398.08c.992.204 1.849.381 2.904.381.312 0 .624-.014.934-.04a.43.43 0 0 0 .303-.165c1.162 2.908 4.365 5.007 8.133 5.007.965 0 1.943-.233 2.82-.452l2.484 1.358a.44.44 0 0 0 .484-.043.436.436 0 0 0 .144-.466l-.635-2.11C37.834 31.646 39 29.635 39 27.633zm-17.101 1.691c-.284.025-.573.037-.86.037-.965 0-1.783-.167-2.728-.362l-.549-.111a.423.423 0 0 0-.28.037l-2.415 1.209.627-1.885a.438.438 0 0 0-.164-.497c-2.426-1.69-3.655-3.75-3.655-6.12 0-4.262 4.11-7.73 9.164-7.73 4.467 0 8.422 2.718 9.238 6.333-4.684.061-8.473 3.354-8.473 7.398 0 .588.089 1.158.24 1.707a.436.436 0 0 0-.145-.016zm13.04 3.489a.438.438 0 0 0-.157.475l.414 1.376-1.698-.929a.434.434 0 0 0-.317-.04c-.91.23-1.853.467-2.77.467-4.264 0-7.731-2.93-7.731-6.53s3.467-6.53 7.73-6.53c4.182 0 7.715 2.99 7.715 6.53 0 1.796-1.131 3.636-3.187 5.181zm-7.178-8.301c-.48 0-.96.484-.96.963 0 .483.48.96.96.96.722 0 1.2-.477 1.2-.96 0-.48-.478-.963-1.2-.963zm5.278 0c-.473 0-.953.484-.953.963 0 .483.48.96.953.96.72 0 1.205-.477 1.205-.96 0-.48-.484-.963-1.205-.963z" fill-rule="nonzero" fill="#353535"/></g></svg>
