<svg width="45" height="45" xmlns="http://www.w3.org/2000/svg" xmlns:xlink="http://www.w3.org/1999/xlink"><defs><path d="M32.863 12.47c-.062-3.082-2.756-5.07-5.499-5.348.531-3.353-2.284-5.367-4.36-5.73-2.261-.397-4.298.345-5.593 2.297-1.725-2.22-3.212-2.26-4.852-2.28-1.245-.015-5.408.873-4.865 6.14-2.676-.386-5.194.55-6.001 3.533-.538 1.986-.104 5.083 3.3 6.74.749 1.76 2.708 10.84 12.11 10.836 9.403-.004 11.085-9.273 11.516-10.848 2.672-1.08 4.284-3.354 4.244-5.34z" id="a"/></defs><g fill="none" fill-rule="evenodd"><path fill="none" d="M0 0h45v45H0z" fill-opacity="0"/><g fill-rule="nonzero"><g transform="translate(6 8)"><use fill="#FFC59B" fill-rule="evenodd" xlink:href="#a"/><path stroke="#464B7D" d="M29.042 18.175l-.143.568c-.114.443-.23.853-.365 1.28a17.134 17.134 0 0 1-1.444 3.346c-2.07 3.618-5.304 5.787-9.986 5.789-4.732.002-8.031-2.157-10.259-5.804-.62-1.016-1.118-2.08-1.568-3.266-.16-.42-.526-1.48-.681-1.907-3.042-1.57-4.123-4.507-3.386-7.23.766-2.829 3.038-4.178 5.943-3.964C6.993 2.88 9.705.874 12.565.91c2.268.028 3.456.39 4.826 1.966 1.385-1.688 3.416-2.377 5.7-1.977 2.733.479 5.02 2.816 4.824 5.793 3.01.508 5.388 2.79 5.448 5.768.044 2.23-1.699 4.563-4.321 5.715z"/></g><path d="M15.129 14.484c0 2.092 1.718 3.788 3.839 3.788 2.12 0 3.839-1.696 3.839-3.788 0-2.092-1.72-3.788-3.84-3.788s-3.838 1.696-3.838 3.788zM24.179 14.552c0 2.092 1.719 3.788 3.839 3.788s3.839-1.696 3.839-3.788c0-2.092-1.719-3.788-3.839-3.788s-3.839 1.696-3.839 3.788zM30.479 20.434c0 1.83 1.504 3.314 3.358 3.314 1.855 0 3.359-1.484 3.359-3.314s-1.504-3.313-3.359-3.313c-1.854 0-3.358 1.483-3.358 3.313zM9.052 20.463c0 1.83 1.504 3.314 3.359 3.314 1.854 0 3.358-1.484 3.358-3.314s-1.504-3.313-3.358-3.313c-1.855 0-3.359 1.483-3.359 3.313z" fill="#FEEDE0"/></g><path d="M23.456 19.897c3.269.36 3.293 2.479 3.83 3.388.536.909 3.938 2.04 3.012 5.966-.927 3.925-4.698 2.05-6.582 2.024-1.883-.025-4.515 1.555-6.171-.23-1.656-1.786-1.267-4.473.13-5.893 1.396-1.419 1.552-.81 2.58-3.456.562-1.084 1.54-1.684 2.934-1.8h.267z" fill="#FEEDE0"/></g></svg>
