<svg width="45" height="45" xmlns="http://www.w3.org/2000/svg"><g fill="none" fill-rule="evenodd"><path fill="none" d="M0 0h45v45H0z" fill-opacity="0"/><g transform="translate(6 5)"><circle fill="#FFA3A3" cx="17" cy="19" r="14"/><circle fill="#FFE6EC" cx="8" cy="21" r="8"/><circle fill="#FFE6EC" cx="26" cy="21" r="8"/><path d="M12 23a4 4 0 1 0-8 0M30 23a4 4 0 1 0-8 0" stroke="#464B7D" stroke-linecap="round"/><path d="M16.543 4.649c-.355-1.163-.885-2.434-3.543-3.033.425-.892.875-1.43 1.352-1.616 1.968 1.701 2.698 3.25 2.191 4.649zM17.03 5.073c.59-1.064 1.372-2.196 4.096-2.23-.23-.96-.426-1.372-.59-1.234-2.193.605-3.362 1.76-3.506 3.464zM15.506 19.879a7.561 7.561 0 0 1 1.533-.16c.494 0 .978.05 1.452.152A.643.643 0 0 1 19 20.5a.389.389 0 0 1-.472.38 6.952 6.952 0 0 0-1.489-.161c-.51 0-1.032.056-1.564.167A.394.394 0 0 1 15 20.5c0-.3.211-.56.506-.621z" fill="#464B7D"/><path d="M27.07 29.433A14.451 14.451 0 0 1 17 33.5c-3.81 0-7.387-1.476-10.07-4.067a8.502 8.502 0 0 1-3.476-15.616 14.504 14.504 0 0 1 27.092 0 8.502 8.502 0 0 1-3.476 15.617z" stroke="#464B7D"/></g></g></svg>
