<svg width="45" height="45" xmlns="http://www.w3.org/2000/svg"><g fill="none" fill-rule="evenodd"><path fill="none" d="M0 0h45v45H0z" fill-opacity="0"/><path d="M28 27h8M24 23.5h12" stroke="#000" stroke-linecap="round" stroke-linejoin="round"/><circle stroke="#000" fill-opacity=".772" fill="#FFA0AD" cx="19.5" cy="17.5" r="5.5"/><path d="M19 34h9c0-2.333-.667-4.333-2-6-2-2.5-4.735-3-7-3-2.045 0-4.5.5-6.5 3-1.333 1.667-2 3.667-2 6H19z" stroke="#000" fill="#89C6FF" stroke-linecap="round" stroke-linejoin="round"/><path d="M28 20h8M19 17c.636-.667 1.182-1 1.636-1 .455 0 .91.333 1.364 1M20.5 20c.444.398.777.648 1 .75.607.277.701.25 1 .25.302 0 .382.033 1-.25.22-.101.386-.184.5-.25" stroke="#000" stroke-linecap="round" stroke-linejoin="round"/></g></svg>