<svg width="45" height="45" xmlns="http://www.w3.org/2000/svg"><g fill="none" fill-rule="evenodd"><path fill="none" d="M0 0h45v45H0z" fill-opacity="0"/><path d="M10.5 14.5a2 2 0 0 1 2-2h8.626a1 1 0 0 1 .881.527l3.006 5.604a1 1 0 0 0 .881.528H33.5a2 2 0 0 1 2 2V31.5a2 2 0 0 1-2 2h-21a2 2 0 0 1-2-2v-17zm12.5 0h8.5a2 2 0 0 1 2 2V19L23 14.5z" stroke="#000" fill="#f7f4ad" stroke-linejoin="round"/><path d="M19.5 28c.725.796 1.244 1.296 1.556 1.5.849.555 1.526.5 1.944.5.423 0 1.468-.431 2.333-1 .307-.2.696-.534 1.167-1M26.5 23c.636.667 1.182 1 1.636 1 .455 0 .91-.333 1.364-1" stroke="#000" stroke-linecap="round" stroke-linejoin="round"/><path d="M25.798 18.7H32.5a.5.5 0 0 0 .5-.5V16a1 1 0 0 0-1-1h-8.5l1.858 3.438a.5.5 0 0 0 .44.262z" fill="#89C6FF"/><path d="M16 23c.636.667 1.182 1 1.636 1 .455 0 .91-.333 1.364-1" stroke="#000" stroke-linecap="round" stroke-linejoin="round"/></g></svg>