<svg width="45" height="45" xmlns="http://www.w3.org/2000/svg" xmlns:xlink="http://www.w3.org/1999/xlink"><defs><path d="M1.282 0h14.506c.518 0 .698.019.896.065.199.046.375.119.547.227.173.109.313.223.678.59l3.995 4.021.082.083.028.028.083.083 4.027 4.027c.365.365.478.504.586.677.107.172.18.347.226.545.045.198.064.377.064.893v18.98c0 .445-.046.606-.134.77a.909.909 0 0 1-.378.377c-.163.088-.324.134-.77.134H1.282c-.446 0-.607-.046-.77-.134a.909.909 0 0 1-.378-.378c-.088-.163-.134-.324-.134-.77V1.282C0 .836.046.675.134.512A.909.909 0 0 1 .512.134C.675.046.836 0 1.282 0z" id="a"/></defs><g fill="none" fill-rule="evenodd"><path fill="none" d="M1-1h45v45H1z" fill-opacity="0"/><g transform="translate(10 6)"><use fill="#D9B5FF" xlink:href="#a"/><path stroke="#000" d="M1.282.5C.95.5.85.52.747.574a.409.409 0 0 0-.173.173C.52.85.5.951.5 1.282v28.936c0 .331.02.432.074.535.041.075.098.132.173.173.103.055.204.074.535.074h24.436c.331 0 .432-.02.535-.074a.409.409 0 0 0 .173-.173c.055-.103.074-.204.074-.535V11.24c0-.45-.012-.61-.052-.78a1.242 1.242 0 0 0-.162-.393c-.093-.148-.197-.27-.516-.589L21.743 5.45l-.083-.082-.029-.03-.082-.082-3.995-4.021c-.318-.32-.44-.426-.589-.52a1.242 1.242 0 0 0-.394-.163c-.17-.04-.33-.052-.783-.052H1.282z"/></g><path d="M23.5 32c.59 0 1.796-.267 3-1.5.45-.46 1.116-1.46 2-3h-10c1.144 1.838 1.977 3.005 2.5 3.5.957.907 1.994 1 2.5 1z" stroke="#000" fill="#F5F483" stroke-linecap="round" stroke-linejoin="round"/><text font-family="PingFangSC-Medium, PingFang SC" font-size="5" font-weight="400" fill="#000"><tspan x="21.275" y="24">&amp;</tspan></text><text font-family="PingFangSC-Medium, PingFang SC" font-size="9" font-weight="400" fill="#000"><tspan x="14.043" y="22">Q</tspan></text><text font-family="PingFangSC-Medium, PingFang SC" font-size="9" font-weight="400" fill="#000"><tspan x="25.934" y="22">A</tspan></text></g></svg>