<svg width="45" height="45" xmlns="http://www.w3.org/2000/svg" xmlns:xlink="http://www.w3.org/1999/xlink"><defs><path id="a" d="M11.2 18.5h23.5V36H11.2z"/></defs><g fill="none" fill-rule="evenodd"><path fill="none" d="M0 0h45v45H0z" fill-opacity="0"/><path d="M24.5 12.5l7 5.5M21.5 12.5l-7 5.5" stroke="#000" stroke-linecap="round" stroke-linejoin="round"/><circle stroke="#000" fill="#000" cx="23" cy="11.5" r="1"/><use fill-opacity=".979" fill="#a8f8d8" xlink:href="#a"/><path stroke="#000" d="M11.7 19h22.5v16.5H11.7z"/><ellipse stroke="#000" fill="#FD8394" cx="23" cy="30.5" rx="1" ry="1.5"/><path fill="#000" d="M26.75 26.625l-1.029.54.197-1.145-.832-.81 1.15-.168L26.75 24l.514 1.042 1.15.167-.832.811.197 1.146zM18.75 26.625l-1.029.54.197-1.145-.832-.81 1.15-.168L18.75 24l.514 1.042 1.15.167-.832.811.197 1.146z"/></g></svg>