<svg width="45" height="45" xmlns="http://www.w3.org/2000/svg"><g fill="none" fill-rule="evenodd"><path d="M13.881 19.575l9.9-9.9a2 2 0 0 1 2.828 0l.356.32" stroke="#464B7D" stroke-linecap="round"/><path d="M35.82 10.364a7 7 0 0 1 0 9.9L21.678 34.405l-9.9-9.9L25.92 10.364a7 7 0 0 1 9.9 0z" fill="#3ABCFF"/><path d="M12.485 23.799l9.9 9.9a7 7 0 0 1-9.9-9.9z" fill="#99ECF6"/><path d="M11.778 31.577l2.829 2.829-1.415 1.414a2 2 0 1 1-2.828-2.828l1.414-1.415z" fill="#3ABCFF"/><path fill="#99ECF6" d="M25.92 10.364l9.9 9.9-2.829 2.828-9.9-9.9z"/><path d="M21.678 33.698L35.466 19.91a6.5 6.5 0 1 0-9.192-9.192L12.485 24.506l.003.003-.26.347a6.501 6.501 0 0 0 9.1 9.1l.347-.26.003.002z" stroke="#464B7D"/><path d="M11.778 32.284l-1.06 1.06a1.5 1.5 0 0 0 2.12 2.122l1.061-1.06-2.12-2.122z" stroke="#464B7D"/><g fill="#FFF" fill-opacity="0"><path fill="none" d="M0 0h45v45H0z"/></g></g></svg>
