<svg width="45" height="45" xmlns="http://www.w3.org/2000/svg"><g fill="none" fill-rule="evenodd"><path fill="none" d="M0 0h45v45H0z" fill-opacity="0"/><g transform="translate(7 7)"><rect fill="#F6AED3" x="5" y="12" width="5" height="18" rx="2.5"/><path d="M6 9h14v12H6A6 6 0 1 1 6 9z" fill="#F280AE"/><path d="M24.053.985a.8.8 0 0 0 .01 0c.663.088.968.596.94 1.143.002 2.189.042 18.32-.005 25.885-.024.748-.515.993-1.098.985C16.207 28.944 10 22.693 10 15 10 7.26 16.275.985 24.015.985h.038z" fill="#F6AED3"/><path d="M17 27.126V2.864A13.95 13.95 0 0 1 24.062.985c.664.088.97.596.94 1.143.003 2.189.043 18.32-.004 25.885-.024.748-.515.993-1.098.985a13.936 13.936 0 0 1-6.9-1.872z" fill="#F280AE"/><path d="M11.033 8.5A14.514 14.514 0 0 1 24.015.485h.04l.073.005c.89.117 1.418.818 1.374 1.638l.01 5.191c.005 3.42.008 6.582.009 9.575 0 4.709-.007 8.503-.023 11.135-.032.977-.684 1.482-1.602 1.47a14.497 14.497 0 0 1-12.86-7.999H10.5v6a3 3 0 0 1-6 0v-6.174A6.5 6.5 0 0 1 6 8.5h5.033z" stroke="#464B7D"/><rect stroke="#464B7D" x="27.5" y="15.5" width="5" height="1" rx=".5"/><rect stroke="#464B7D" transform="rotate(-45 29.475 4.475)" x="26.975" y="4.475" width="5" height="1" rx=".5"/><rect stroke="#464B7D" transform="scale(1 -1) rotate(-45 -32.027 0)" x="26.975" y="25.475" width="5" height="1" rx=".5"/></g></g></svg>
