<svg width="45" height="45" xmlns="http://www.w3.org/2000/svg" xmlns:xlink="http://www.w3.org/1999/xlink"><defs><path d="M4 4h19a4 4 0 0 1 4 4v16a6 6 0 0 1-6 6H4a4 4 0 0 1-4-4V8a4 4 0 0 1 4-4z" id="a"/><path d="M17 5a5 5 0 0 1 10 0v20H17V5z" id="b"/><circle id="c" cx="22" cy="25" r="4"/></defs><g fill="none" fill-rule="evenodd"><path fill="none" d="M0 0h45v45H0z" fill-opacity="0"/><g transform="translate(10 7)"><use fill="#5EE0C0" xlink:href="#a"/><path stroke="#464B7D" d="M4 4.5A3.5 3.5 0 0 0 .5 8v18A3.5 3.5 0 0 0 4 29.5h17a5.5 5.5 0 0 0 5.5-5.5V8A3.5 3.5 0 0 0 23 4.5H4z"/><g transform="translate(8 20)" fill="#464B7D"><rect transform="rotate(45 3.186 3.186)" x="2.686" y="-.82" width="1" height="8.01" rx=".5"/><rect transform="scale(-1 1) rotate(45 0 -4.493)" x="2.677" y="-.816" width="1" height="7.985" rx=".5"/></g><use fill="#ADF2DD" xlink:href="#b"/><path stroke="#464B7D" d="M17.5 24.5h9V5a4.5 4.5 0 1 0-9 0v19.5z"/><g><use fill="#5EE0C0" xlink:href="#c"/><circle stroke="#464B7D" cx="22" cy="25" r="4.5"/></g><circle stroke="#464B7D" cx="6.5" cy="10.5" r="3"/></g></g></svg>
