<svg width="45" height="45" xmlns="http://www.w3.org/2000/svg" xmlns:xlink="http://www.w3.org/1999/xlink"><defs><path d="M20.244 2.348c1.946 1.76 3.678 3.81 6.435 8.17 2.757 4.36 3.95 7.48 4.204 9.802.255 2.324.294 3.911-1.597 6.023-1.891 2.11-6.774 2.987-13.301 2.987s-9.003-.473-11.9-2.184c-2.898-1.71-3.381-3.825-3.026-6.73.356-2.906 1.804-5.64 4.296-9.728s5.218-7.105 7.2-8.625c1.98-1.521 5.742-1.474 7.689.285z" id="a"/><path d="M20.244 2.348c1.946 1.76 3.678 3.81 6.435 8.17 2.757 4.36 3.95 7.48 4.204 9.802.255 2.324.294 3.911-1.597 6.023-1.891 2.11-6.774 2.987-13.301 2.987s-9.003-.473-11.9-2.184c-2.898-1.71-3.381-3.825-3.026-6.73.356-2.906 1.804-5.64 4.296-9.728s5.218-7.105 7.2-8.625c1.98-1.521 5.742-1.474 7.689.285z" id="c"/></defs><g fill="none" fill-rule="evenodd"><path fill="none" d="M0 0h45v45H0z" fill-opacity="0"/><g transform="translate(7 8)"><path fill="#FFF" d="M14 4h2v3h-2z"/><path fill="#FFF" d="M15 5h3v2h-3zM7 12h2v2H7z"/><path fill="#FEF7DC" d="M4.835 12.449L8.19 7.472l4.23-5.089L15.112 1h3.131l2.165 1.205 4.25 5.005 4.427 7.19 1.353 3.237-3.84 5.943-13.187 3.414-8.807-3.414L2 20.27v-2.174z"/><mask id="b" fill="#fff"><use xlink:href="#a"/></mask><path d="M1.99 18.39c7.304 3.331 12.344 6.808 15.118 10.433 2.775 3.624-2.39 4.797-15.493 3.52l-5.35-8.962 5.725-4.99z" fill="#18DD96" mask="url(#b)"/><mask id="d" fill="#fff"><use xlink:href="#c"/></mask><path d="M11.384 28.795c8.748-6.395 14.94-9.832 18.577-10.31 3.637-.478 5.024 2.958 4.16 10.31l-10.7 3.642-12.037-3.642z" fill="#18DD96" mask="url(#d)"/><path d="M19.972 2.723c-1.742-1.574-5.248-1.676-7.091-.262-2.155 1.654-4.814 4.774-7.084 8.498-2.846 4.67-3.92 7-4.231 9.54-.376 3.077.307 4.801 2.798 6.272 2.83 1.67 5.254 2.119 11.663 2.119 6.776 0 11.271-.955 12.952-2.832 1.552-1.732 1.786-2.875 1.481-5.66-.265-2.419-1.575-5.554-4.135-9.602-2.56-4.047-4.275-6.194-6.353-8.073z" stroke="#464B7D" stroke-width=".936"/><circle fill="#464B7D" cx="10.5" cy="15.5" r="1.5"/><circle fill="#464B7D" cx="21.5" cy="15.5" r="1.5"/><circle fill="#464B7D" cx="18.5" cy="5.5" r="1"/><circle fill="#464B7D" cx="18.5" cy="7.5" r="1"/><circle fill="#464B7D" cx="20.5" cy="6.5" r="1"/><path d="M11 7.612c.926-1.741 2.295-3.07 3.128-3.612M13 19c2.53 1.693 4.736 1.693 6.62 0" stroke="#464B7D" stroke-linecap="round"/></g></g></svg>
