<svg width="45" height="45" xmlns="http://www.w3.org/2000/svg"><g fill="none" fill-rule="evenodd"><path fill="none" d="M0 0h44.997v45H0z"/><path d="M25.362 27.706c-2.714 3.02-2.556 5.595-2.1 6.358.456.763 1.722 3.319.251 4.686M33.756 25.824c-2.715 3.02-2.543 5.926-1.972 6.702.571.776 1.517 2.105.123 4.341M16.941 25.824c-2.715 3.02-2.679 5.548-1.972 6.702.707 1.154 1.682 2.845.123 4.341" stroke="#464B7D" stroke-width=".951" stroke-linecap="round"/><path d="M16.395 29.253l.39.883a.95.95 0 0 1-.87 1.335H13.18a.95.95 0 0 1-.876-1.32l.384-.913C9.977 28.196 8 24.955 8 21.118c0-4.679 2.938-8.47 6.563-8.47 3.624 0 6.562 3.791 6.562 8.47 0 3.857-1.997 7.112-4.73 8.135z" fill="#FFEA53"/><path d="M33.27 29.253l.39.883a.95.95 0 0 1-.87 1.335h-2.735a.95.95 0 0 1-.876-1.32l.384-.913c-2.711-1.042-4.688-4.283-4.688-8.12 0-4.679 2.938-8.47 6.562-8.47 3.625 0 6.563 3.791 6.563 8.47 0 3.857-1.997 7.112-4.73 8.135z" fill="#44F3B3"/><path d="M24.88 29.361l.343.775a.95.95 0 0 1-.87 1.335h-2.735a.95.95 0 0 1-.877-1.32l.337-.8c-4.256-1.069-7.453-5.613-7.453-11.057C13.625 12.057 17.822 7 23 7s9.375 5.057 9.375 11.294c0 5.462-3.218 10.018-7.495 11.067z" fill="#F89696"/><path d="M20.57 10.537c-.36.172-2.904 1.43-4.025 5.972-.101.548.57.848.798.139.229-.71 1.049-4.189 3.653-5.478.42-.543-.065-.804-.426-.633z" fill="#FFF"/><path d="M27.657 28.67a8.92 8.92 0 0 1-2.12 1l.12.274a1.426 1.426 0 0 1-1.304 2.002h-2.735a1.426 1.426 0 0 1-1.315-1.978l.13-.308a8.925 8.925 0 0 1-2.09-.99 6.554 6.554 0 0 1-1.318.833l.195.44a1.426 1.426 0 0 1-1.304 2.003H13.18a1.426 1.426 0 0 1-1.314-1.978l.201-.48c-2.711-1.302-4.542-4.617-4.542-8.37 0-4.918 3.12-8.946 7.038-8.946h.021C16.352 8.705 19.51 6.525 23 6.525s6.648 2.18 8.416 5.647h.022c3.917 0 7.037 4.028 7.037 8.946 0 3.77-1.847 7.096-4.575 8.385l.195.44a1.426 1.426 0 0 1-1.304 2.003h-2.736a1.426 1.426 0 0 1-1.314-1.978l.201-.481c-.45-.216-.88-.49-1.285-.818z" stroke="#464B7D" stroke-width=".951"/></g></svg>
