<svg width="90" height="90" xmlns="http://www.w3.org/2000/svg"><g fill="none" fill-rule="evenodd"><path fill="none" d="M0 0h89.993v90H0z"/><path d="M48.043 47.657l-8.392 3.364c-.136.045-.25.067-.367.067-.62 0-1.123-.505-1.123-1.128 0-.118.023-.23.057-.337l.044-.124 3.32-8.305c.06-.174.164-.32.289-.443l13.24-13.275h-30.69a2.246 2.246 0 0 0-2.246 2.247v37.06a2.246 2.246 0 0 0 2.246 2.246h35.06a2.246 2.246 0 0 0 2.246-2.246V34.147L48.501 47.382a1.344 1.344 0 0 1-.458.275z" fill="#FFF281"/><path fill="#FFF" d="M70.711 16.712l-2.671 2.673 1.78 1.78 2.672-2.673zM44.223 41.514l3.466 3.465 19.798-19.8-3.466-3.464zM45.693 46.158l-2.65-2.65-1.766 4.419z"/><path fill="#FDAE59" d="M43.337 41.062l4.59 4.855 19.56-20.737-3.466-3.465z"/><path d="M68.057 19.385l2.672-2.673 1.78 1.786-2.67 2.673-1.782-1.786zm-8.576 49.644H26.274a2.245 2.245 0 0 1-2.246-2.246v-37.06a2.245 2.245 0 0 1 2.246-2.247h28.838L41.859 40.74c-.113.14-.217.28-.272.454L38.262 49.5l-.05.124a1.126 1.126 0 0 0 1.07 1.466c.12 0 .232-.023.339-.057.021-.005 8.424-3.369 8.424-3.369.171-.062.317-.163.444-.292l13.238-13.224v32.636a2.246 2.246 0 0 1-2.246 2.246zm-18.187-21.08l1.767-4.419 2.65 2.65-4.417 1.77zm26.21-22.758l-19.797 19.81-3.466-3.47 19.798-19.81 3.465 3.47zm7.717-6.693c0-.315-.126-.595-.33-.798l-3.368-3.369a1.103 1.103 0 0 0-.794-.331c-.31 0-.59.124-.794.331l-3.659 3.661a2.231 2.231 0 0 0-2.242.545c-.019.023-6.678 6.693-6.678 6.693H26.274a4.491 4.491 0 0 0-4.493 4.493v37.06a4.491 4.491 0 0 0 4.493 4.492H59.48c2.48 0 4.492-2.01 4.492-4.492V31.9l6.653-6.654c.667-.662.843-1.527.609-2.296l3.657-3.661c.203-.203.329-.483.329-.792z" opacity=".851" stroke="#262626" stroke-width=".1" fill="#000"/><path d="M38.425 37.271c1.752 0 1.737-2.485 0-2.485H29.6a1.248 1.248 0 0 0 0 2.485h8.824zM38.425 43.7c1.752 0 1.737-2.486 0-2.486H29.6a1.248 1.248 0 0 0 0 2.486h8.824z" fill="#121925"/></g></svg>
