<svg width="45" height="45" xmlns="http://www.w3.org/2000/svg"><g fill="none" fill-rule="evenodd"><path d="M21.892 20.887l-1.917 2.115c2.126 1.717 4.105 2.105 5.938 1.164 1.833-.941 2.904-2.543 3.212-4.808l-2.102-.834c-.806 1.006-1.63 1.647-2.473 1.923a9.077 9.077 0 0 1-2.658.44z" fill="#A9F8FF"/><path d="M19.907 21.72a4.517 4.517 0 0 0 8.45-2.516 6.002 6.002 0 0 1 5.535 4.047l1.202 3.61-21.342 7.35-1.852-5.503a4.052 4.052 0 0 1-.1-.338l.358.346 6.26-6.483 1.489-.512z" fill="#5FCEFF"/><path fill="#FFB578" d="M11 28.632l9.639-9.98 2.158 2.083-9.638 9.981zM33.634 22.34c-1.894 1.376-2.393 3.138-1.499 5.287.69-.269 1.762-.68 3.22-1.233l-1.1-3.065-.621-.99z"/><path d="M11.94 27.354l.526-.18 2.12 6.525-6.108 2.097-.297-.913a6 6 0 0 1 3.759-7.53z" fill="#FFF"/><path d="M8.461 35.724l26.582-9.215.388 1.124a2 2 0 0 1-1.236 2.54L11.392 38.08a2 2 0 0 1-2.547-1.238l-.384-1.117z" fill="#F58FA9"/><path d="M12.114 26.76l8.512-8.816 2.429 2.345a8.31 8.31 0 0 0 1.34-.317c.74-.242 1.488-.824 2.238-1.76l.231-.29 2.062.82a6.5 6.5 0 0 1 5.439 4.346l.527 1.53.026-.008.977 2.835a2.5 2.5 0 0 1-1.55 3.178L11.68 38.426a2.5 2.5 0 0 1-3.177-1.55l-.323-.937-.05.017-.292-.85a6.5 6.5 0 0 1 4.03-8.262l.246-.085z" stroke="#464B7D"/><path d="M31.845 17.152c-.483 1.466-3.166 3.714-5.246.828-.267-.396-.987-1.43-2.161-3.1l2.706-2.48c3.457 2.19 5.024 3.775 4.701 4.752z" fill="#47A3E2"/><path d="M34.845 16.152c-.483 1.466-3.822 3.24-5.71.455C27.247 13.823 26.951 14.134 26 14c-.634-.09-.919-.63-.855-1.619l3.422-1.702 5.087 1.969c1.117 1.359 1.514 2.527 1.191 3.504z" fill="#7FD4EA"/><path d="M38.258 15.364c-1.14.949-3.295.905-5.238-.72-2.063-1.728-4.403-2.094-7.02-1.098l-.386.144c.756.33 1.405 1.255 1.589 1.847.409 1.314.758 3.133-1.807 4.595-2.566 1.463-4.436.662-5.406.123-.97-.54-1.891-1.938-2.247-3.315-.366-1.417-.23-3.302.631-4.453 1.698-2.27 3.702-3.335 5.347-3.956 1.646-.622 4.452-1.311 8.25-.805 3.796.506 5.957 1.468 7.07 3.658.743 1.46.356 3.031-.783 3.98z" fill="#A9F8FF"/><path d="M27.2 19.306c-.378.462-.893.882-1.557 1.26-2.264 1.291-4.11 1.12-5.896.126-1.087-.605-2.095-2.105-2.488-3.627-.433-1.674-.191-3.666.715-4.878 1.528-2.042 3.344-3.283 5.57-4.124 2.359-.891 5.187-1.274 8.492-.833 4.106.547 6.288 1.64 7.452 3.928.829 1.63.442 3.465-.91 4.59-.823.685-2.025.907-3.279.62-.446 1.224-2.15 2.266-3.747 2.202-1.187 1.334-2.898 1.78-4.353.736z" stroke="#464B7D"/></g></svg>
