<svg width="45" height="45" xmlns="http://www.w3.org/2000/svg" xmlns:xlink="http://www.w3.org/1999/xlink"><defs><path d="M16.331 20.397c6.008.23 14.064 5.855 14.706-5.433C31.09 7.062 24.304 0 15.996 0 7.686 0 .475 6.952.825 15.23c.89 10.454 9.5 4.936 15.506 5.167z" id="a"/></defs><g fill="none" fill-rule="evenodd"><path fill="none" d="M0 0h45v45H0z"/><g transform="translate(7 7)"><path d="M7.418 19.54l17.585-.18c1.178 5.235 1.325 8.379.44 9.431-1.326 1.579-4.469 2.203-9.163 2.209-4.694.006-7.34-.5-9.1-1.912-1.174-.941-1.095-4.124.238-9.547z" fill="#FDCFAD"/><path d="M16.331 20.397c6.008.23 14.064 5.855 14.706-5.433C31.09 7.062 24.304 0 15.996 0 7.686 0 .475 6.952.825 15.23c.89 10.454 9.5 4.936 15.506 5.167z" fill="#F5E8DE"/><mask id="b" fill="#fff"><use xlink:href="#a"/></mask><use fill="#FFF1E7" xlink:href="#a"/><circle fill="#FFCCA7" mask="url(#b)" cx="10.5" cy="1.5" r="5.5"/><circle fill="#FFCCA7" mask="url(#b)" cx="27" cy="7" r="4"/><path d="M14.187 15.684c1.293 1.04 2.532 1.04 3.716 0" stroke="#464B7D" stroke-width=".5" stroke-linecap="round" mask="url(#b)"/><ellipse fill="#FFA9A9" cx="22" cy="15.5" rx="2" ry="1"/><ellipse fill="#FFA9A9" cx="10" cy="15.5" rx="2" ry="1"/><circle fill="#464B7D" cx="20.5" cy="12.5" r="1.5"/><circle fill="#464B7D" cx="11.5" cy="12.5" r="1.5"/><path d="M26.135 22.491c.58 3.478.506 5.652-.309 6.622-1.402 1.669-4.492 2.38-9.545 2.387-4.892.006-7.573-.545-9.414-2.022-1.167-.936-1.299-3.351-.536-7.332C2.738 22.078.736 20.084.325 15.25-.033 6.776 7.31-.5 15.995-.5c8.48 0 15.597 7.181 15.542 15.492-.292 5.122-2.095 7.347-5.402 7.5z" stroke="#464B7D"/></g></g></svg>
