<svg width="45" height="45" xmlns="http://www.w3.org/2000/svg"><g fill="none" fill-rule="evenodd"><path fill="none" d="M0 0h45v45H0z"/><path fill="#FF93C8" d="M30.981 11.621l6.212 7.454h-8.696l-.044-.063z"/><path fill="#FF93C8" d="M37.193 19.075L22.907 35.224l5.522-16.15z"/><path fill="#FFF" d="M28.429 19.075l-5.522 16.149-5.522-16.15z"/><path fill="#FF93C8" d="M17.385 19.075l5.522 16.149L8.62 19.074z"/><path fill="#FF93C8" d="M17.36 19.012l-.043.063H8.62l6.211-7.454zM22.907 11.621l-5.547 7.391-2.528-7.39z"/><path fill="#FFF" d="M28.453 19.012l-.024.063H17.385l-.025-.063 5.547-7.39z"/><path fill="#FF93C8" d="M30.981 11.621l-2.528 7.391-5.546-7.39z"/><path d="M37.205 19.696H8.621a.622.622 0 0 1-.477-1.019l6.211-7.453a.62.62 0 0 1 .477-.224h16.15a.62.62 0 0 1 .476.224l6.147 7.376a.62.62 0 0 1-.4 1.096zM9.947 18.453h25.92l-5.176-6.21H15.123l-5.176 6.21z" fill="#292034"/><path d="M27.758 19.125l-4.851-6.468-4.851 6.468 4.85 14.18 4.852-14.18zm-5.052 16.687l-.054-.047-.103-.033-.129-.172-.07-.062-.03-.073-5.49-16.047-.128-.215.023-.09-2.48-7.25a.621.621 0 0 1 1.175-.403l2.15 6.283 4.84-6.455.078-.046.046-.077.15-.039.135-.08.088.023.088-.022.135.08.15.038.045.077.079.046 4.84 6.455 2.15-6.283a.621.621 0 0 1 1.175.402l-2.48 7.25.023.09-.128.216-5.49 16.047-.03.073-.07.062-.13.172-.103.033-.053.047-.201.033a.636.636 0 0 1-.201-.033z" fill="#292034"/><path d="M22.907 35.845a.622.622 0 0 1-.465-.21L8.156 19.486a.622.622 0 0 1 .93-.823l13.82 15.623 13.821-15.623a.622.622 0 0 1 .93.823l-14.285 16.15a.622.622 0 0 1-.465.209z" fill="#292034"/></g></svg>
