<svg width="45" height="45" xmlns="http://www.w3.org/2000/svg"><g fill="none" fill-rule="evenodd"><path fill="none" d="M0 0h45v45H0z" fill-opacity="0"/><g transform="translate(8 7)"><rect fill="#FFEBBE" transform="rotate(15 17.626 12.29)" x="8.112" y="2.118" width="19.028" height="20.344" rx="1.92"/><ellipse fill="#9CDAE4" cx="18.387" cy="9.688" rx="3.871" ry="3.875"/><rect fill="#F8AD90" transform="rotate(-15 7.88 13.646)" x="2.798" y="5.896" width="10.164" height="15.5" rx="1.92"/><rect fill="#FFAE3C" x="1.935" y="19.375" width="25.161" height="11.625" rx="3.84"/><rect fill="#FFCC5D" y="15.5" width="29.032" height="7.75" rx="1.92"/><path d="M27.24 15.023a2.4 2.4 0 0 1 2.272 2.397v3.91a2.4 2.4 0 0 1-1.935 2.355v3.475a4.32 4.32 0 0 1-4.32 4.32H5.775a4.32 4.32 0 0 1-4.32-4.32v-3.475A2.4 2.4 0 0 1-.48 21.33v-3.91a2.4 2.4 0 0 1 2.4-2.4h.57L1 9.454a2.4 2.4 0 0 1 1.697-2.939l6.108-1.637c.16-.042.32-.068.483-.078l.821-3.067a2.4 2.4 0 0 1 2.94-1.697l14.67 3.93a2.4 2.4 0 0 1 1.698 2.94l-2.175 8.117z" stroke="#464B7D" stroke-width=".96"/></g></g></svg>
