<svg width="45" height="45" xmlns="http://www.w3.org/2000/svg"><g fill="none" fill-rule="evenodd"><path fill="none" d="M0 0h45v45H0z" fill-opacity="0"/><g transform="translate(7 10)"><path d="M18.99.52c-.513 0-.727.268-.719.608.01.34.248.537.7.537h1.046c1.347 0 2.083 1.887 1.896 3.37l-.624 5.096c-.803 4.503-3.694 5.555-4.84 5.555h-2.895c-1.294-.06-1.755-1.197-1.44-1.745l.322-.56.388-.684.498-.997c.431-.864.157-1.765-1.658-1.695H2.979c-.39 0-.629.242-.627.55.002.307.208.603.627.603h.252c.24 0-.391 1.553-1.895 4.657-1.044 2.422-.602 1.398-.994 2.348L.14 20.467c.198 3.255 2.171 4.603 5.33 4.603 2.92 0 4.901-1.466 5.394-4.369h9.776c.495 2.903 3.085 3.068 6.005 3.068 3.279 0 3.663.127 3.663-3.302 0-2.209-1.303-4.147-3.91-5.814-.92-.068-2.2-1.655-1.976-2.953l1.14-7.713c.021-.116.062-.226.117-.328.102-.199.184-.414.232-.643.01-.051.062-.448.062-.564 0-1.416-.742-1.931-2.093-1.931h-4.89z" fill="#222"/><circle fill="#222" cx="5.471" cy="20.059" r="5.471"/><circle fill="#222" cx="25.529" cy="20.059" r="5.471"/><path d="M24.3 1.665c.445 0 .507.491.507.946-.004.078-.024.219-.035.297a.888.888 0 0 1-.078.199c-.134.253-.166.522-.22.822l-1.235 7.481c-.277 1.676.909 3.808 2.823 4.306.108.013.17.022.184.027 1.109.382 1.545 1.363 1.545 2.957 0 2.517.823 2.902-1.815 2.902s-4.362 1.467-4.732-.7c-.133-.79-.308-1.348-1.108-1.348h-9.272c-.8 0-.916.083-1.049.87-.383 2.276-2.269 2.916-4.344 2.916-2.267 0-3.043-.675-3.18-3.281-.002-.034.173-.597.523-1.687 0-.528-.988.41-1.208.328-.04-.014-.295-.019-.257-.116l2.515-5.77c.344-.827.41-1.011.638-1.657h7.162c.154 0 .536.046.448.253a1.96 1.96 0 0 1-.229.4l-.407.708-.321.561c-.424.742-.552 1.682-.125 2.424.49.845 1.406 1.326 2.542 1.326h2.896c1.53 0 5.131-.697 5.947-6.302.046-.217.243-1.964.593-5.242.126-1.191.205-2.278-.434-3.211a3.576 3.576 0 0 0-.366-.452l1.672.043h.42z" fill="#FF9576"/><circle fill="#FF9576" cx="5.471" cy="20.059" r="4.376"/><path d="M4.7 3.212c-1.295 0-2.336 1.01-2.336 2.363v2.539a1 1 0 0 0 1 1h8.75a1 1 0 0 0 1-1V5.575c0-1.487-.908-2.363-2.133-2.363H4.7z" fill="#222"/><path d="M10.952 4.276c.5 0 .931.674.931 1.3v2.403H3.585V5.627c0-.771.513-1.327 1.087-1.35h6.404-.124z" fill="#FFF"/><circle fill="#FF9576" cx="25.529" cy="20.059" r="4.376"/><circle stroke="#000" stroke-width="1.2" fill="#FFF" cx="5.314" cy="20.371" r="1.771"/><circle stroke="#000" stroke-width="1.2" fill="#FFF" cx="25.686" cy="20.371" r="1.771"/></g></g></svg>
