<svg width="45" height="45" xmlns="http://www.w3.org/2000/svg"><g fill="none" fill-rule="evenodd"><path fill="none" d="M0 0h45v45H0z" fill-opacity="0"/><g fill-rule="nonzero"><path d="M14.444 16.84l.96-5.013a.272.272 0 0 1 .266-.223h13.648c.131 0 .243.095.266.223l.96 5.013h-16.1z" fill="#FFF"/><path d="M29.047 12.208l.767 4.028h-14.64l.768-4.028h13.105zM29.324 11H15.67c-.42.001-.78.3-.858.713l-1.099 5.73h17.562l-1.093-5.73a.876.876 0 0 0-.864-.713h.006z" fill="#222"/><path fill="#80C3FF" d="M8.604 15.227h27.78v18.118H8.604z"/><path d="M35.176 15.831c.334 0 .604.27.604.604v15.702c0 .334-.27.604-.604.604H9.812a.604.604 0 0 1-.604-.604V16.435c0-.333.27-.604.604-.604h25.364zm0-1.207H9.812c-1 0-1.812.81-1.812 1.811v15.702c0 1 .811 1.812 1.812 1.812h25.364c1.001 0 1.812-.811 1.812-1.812V16.435c0-1-.811-1.811-1.812-1.811z" fill="#222"/><path d="M22.494 30.797a6.51 6.51 0 1 1 6.51-6.51 6.522 6.522 0 0 1-6.51 6.51z" fill="#FFF"/><path d="M22.494 18.38a5.906 5.906 0 1 1 0 11.813 5.906 5.906 0 0 1 0-11.813zm0-1.208a7.114 7.114 0 1 0 0 14.228 7.114 7.114 0 0 0 0-14.228z" fill="#222"/><path d="M19.8 24.286a2.693 2.693 0 1 0 5.388 0 2.693 2.693 0 0 0-5.387 0z" fill="#5BA2E4"/><path d="M22.494 22.197a2.09 2.09 0 1 1 0 4.179 2.09 2.09 0 0 1 0-4.18zm0-1.208a3.297 3.297 0 1 0 0 6.595 3.297 3.297 0 0 0 0-6.595z" fill="#222"/><path fill="#FFF" d="M30.575 17.293h3.798v1.993h-3.798z"/><path d="M33.77 17.897v.785h-2.592v-.785h2.591zm.096-1.208h-2.778c-.614 0-1.111.497-1.111 1.111v.972c0 .614.497 1.112 1.11 1.112h2.779c.614 0 1.111-.498 1.111-1.112V17.8c0-.614-.497-1.111-1.111-1.111z" fill="#222"/></g></g></svg>
