<svg width="45" height="45" xmlns="http://www.w3.org/2000/svg"><g fill="none" fill-rule="evenodd"><path fill="none" d="M0 0h44.997v45H0z"/><path d="M24.021 23.829l-4.196 1.681a.571.571 0 0 1-.183.034.563.563 0 0 1-.51-.794l1.659-4.153a.576.576 0 0 1 .144-.222l6.62-6.637H12.21c-.62 0-1.123.503-1.123 1.123v18.53c0 .62.503 1.123 1.123 1.123h17.53c.62 0 1.124-.502 1.124-1.123V17.074L24.25 23.69a.672.672 0 0 1-.229.138z" fill="#FFF281"/><path fill="#FFF" d="M35.356 8.356L34.02 9.692l.89.89 1.336-1.336zM22.112 20.757l1.733 1.733 9.898-9.9-1.732-1.732zM22.846 23.08l-1.324-1.326-.884 2.21z"/><path fill="#FDAE59" d="M21.669 20.531l2.295 2.427 9.78-10.368-1.733-1.732z"/><path d="M34.029 9.692l1.335-1.336.89.893-1.335 1.336-.89-.893zM29.74 34.514H13.137c-.62 0-1.123-.502-1.123-1.123v-18.53c0-.62.502-1.123 1.123-1.123h14.419l-6.627 6.632a.706.706 0 0 0-.136.227l-1.662 4.153a.636.636 0 0 0-.05.23c0 .312.25.564.56.564a.557.557 0 0 0 .17-.028l4.211-1.684a.587.587 0 0 0 .222-.146l6.62-6.612V33.39c0 .62-.503 1.123-1.123 1.123zm-9.094-10.54l.883-2.209 1.325 1.325-2.208.885zm13.105-11.378L23.853 22.5l-1.733-1.735 9.9-9.906 1.732 1.736zm3.858-3.347a.559.559 0 0 0-.164-.399l-1.685-1.684A.552.552 0 0 0 35.364 7a.552.552 0 0 0-.397.166l-1.829 1.83a1.116 1.116 0 0 0-1.12.273l-3.34 3.346H13.137a2.246 2.246 0 0 0-2.246 2.246v18.53a2.246 2.246 0 0 0 2.246 2.246H29.74a2.246 2.246 0 0 0 2.246-2.246v-17.44l3.326-3.327a1.13 1.13 0 0 0 .304-1.149l1.829-1.83a.557.557 0 0 0 .164-.396z" opacity=".851" stroke="#262626" stroke-width=".1" fill="#000"/><path d="M19.212 18.636c.877 0 .87-1.243 0-1.243h-4.411a.624.624 0 0 0 0 1.243h4.411zM19.212 21.85c.877 0 .87-1.243 0-1.243h-4.411a.624.624 0 0 0 0 1.243h4.411z" fill="#121925"/></g></svg>
