<svg width="30" height="30" xmlns="http://www.w3.org/2000/svg"><g fill="#8C9095" fill-rule="evenodd"><path d="M13.929 13.929H7.5c-.59 0-1.072.48-1.072 1.071 0 .596.48 1.071 1.072 1.071h6.428v6.963c0 .591.48 1.073 1.071 1.073a1.07 1.07 0 0 0 1.071-1.073v-6.963h6.963c.591 0 1.073-.48 1.073-1.071a1.07 1.07 0 0 0-1.073-1.071h-6.963V7.5c0-.59-.48-1.072-1.071-1.072A1.07 1.07 0 0 0 13.929 7.5v6.428z"/><path d="M15 29.464c7.988 0 14.464-6.476 14.464-14.464S22.988.536 15 .536.536 7.012.536 15 7.012 29.464 15 29.464zM15 30C6.716 30 0 23.284 0 15 0 6.716 6.716 0 15 0c8.284 0 15 6.716 15 15 0 8.284-6.716 15-15 15z" fill-rule="nonzero"/></g></svg>
