<svg width="13" height="18" xmlns="http://www.w3.org/2000/svg"><g fill="#8C9095" fill-rule="evenodd"><path d="M2.991 11.79L.673 9.472l2.236-2.237a3.4 3.4 0 0 1 .913 2.323c0 .854-.313 1.634-.83 2.232zM4.478 13.277l1.486 1.485A7.584 7.584 0 0 0 8.02 9.558a7.585 7.585 0 0 0-2.142-5.292L4.394 5.75a5.492 5.492 0 0 1 1.527 3.808 5.491 5.491 0 0 1-1.443 3.719z"/><path d="M7.82 16.619l1.3 1.3a12.035 12.035 0 0 0 3.624-8.623c0-3.289-1.315-6.27-3.448-8.448L7.735 2.41a10.201 10.201 0 0 1 2.91 7.148 10.2 10.2 0 0 1-2.825 7.06z"/></g></svg>
