<svg width="154" height="154" xmlns="http://www.w3.org/2000/svg"><g fill="none" fill-rule="evenodd"><rect fill-opacity=".55" fill="#000" width="154" height="154" rx="6"/><text transform="translate(18 119)" font-size="14" font-family="PingFangSC-Regular, PingFang SC" fill="#EFEFEF"><tspan x=".669" y="15">手指上滑 取消发送</tspan></text><g fill-rule="nonzero" fill="#EFEFEF"><path d="M73.404 65.7V46.71C73.404 39.137 67.605 33 60.452 33S47.5 39.136 47.5 46.711V65.7c0 7.571 5.799 13.711 12.952 13.711s12.952-6.14 12.952-13.711z"/><path d="M77.753 58.824c-1.351 0-1.55.75-1.55 2.246v6.455c0 8.853-8.898 15.51-15.707 15.51-6.81 0-15.991-6.287-15.991-15.51V61.07c0-1.496-.165-2.246-1.481-2.246s-1.69.75-1.69 2.246v6.968c0 3.588 1.274 7.049 3.17 9.79 3.174 4.587 8.394 7.509 14.525 8.198v12.856h-7.908c-1.543 0-3.41-.023-3.41 1.557 0 1.576 1.867 1.6 3.41 1.6h19c1.54 0 3.44.098 3.44-1.478 0-1.58-1.9-1.679-3.44-1.679h-7.91V86.026c5.987-.88 10.94-3.932 13.992-8.505 1.78-2.668 3.107-5.766 3.107-9.483V61.07c0-1.496-.206-2.246-1.557-2.246z"/></g><g fill="#EFEFEF"><path d="M94 99h12v3H94zM94 92h13v3H94zM94 85h14v3H94zM94 78h15v3H94zM94 71h16v3H94zM94 64h17v3H94z"/></g></g></svg>
