<svg width="154" height="154" xmlns="http://www.w3.org/2000/svg"><g fill="none" fill-rule="evenodd"><rect fill-opacity=".55" fill="#000" width="154" height="154" rx="6"/><g transform="translate(11 117)"><rect fill="#F7827C" width="132" height="26" rx="2"/><text font-family="PingFangSC-Regular, PingFang SC" font-size="14" fill="#FFF"><tspan x="7.669" y="18">松开手指 取消发送</tspan></text></g><path d="M92.781 90.818V55.9a12.29 12.29 0 1 0-24.58-.123v23.417a.764.764 0 0 0 .762.767h5.574a.525.525 0 0 1 .394.867l-8.644 10.068a.995.995 0 0 1-1.51 0l-8.6-10.01a.559.559 0 0 1 .42-.923h5.337a.927.927 0 0 0 .924-.93V55.937c0-10.445 8.487-18.562 18.849-17.853 9.27.67 16.442 8.4 16.418 17.694v34.838a2.773 2.773 0 0 1-2.765 2.78 2.57 2.57 0 0 1-2.578-2.578z" fill-rule="nonzero" fill="#EFEFEF"/></g></svg>
