<svg width="30" height="30" xmlns="http://www.w3.org/2000/svg"><path d="M15 0C6.716 0 0 6.716 0 15c0 8.284 6.716 15 15 15 8.284 0 15-6.716 15-15 0-8.284-6.716-15-15-15zm8.49 15.957a1.372 1.372 0 0 1-1.94 0l-5.158-5.158v11.706a1.364 1.364 0 1 1-2.727 0V10.723l-5.24 5.239c-.529.529-1.387.529-1.916 0l-.004-.004a1.355 1.355 0 0 1 0-1.917l7.515-7.513a1.35 1.35 0 0 1 .984-.394c.009 0 .016-.003.025-.003h.004c.352 0 .705.133.974.402l7.483 7.483a1.372 1.372 0 0 1 0 1.94z" fill-rule="nonzero" fill="#52D3C7"/></svg>
