<svg width="70" height="70" xmlns="http://www.w3.org/2000/svg"><g fill="none" fill-rule="evenodd"><rect stroke="#AEB1B5" x=".5" y=".5" width="69" height="68.898" rx="10"/><path d="M23.729 25.249c0 .409-.332.74-.742.74h-2.076a.741.741 0 0 1-.742-.74v-.296c0-.409.333-.74.742-.74h2.076c.41 0 .742.331.742.74v.296zm10.974 19.153c-4.259 0-7.711-3.448-7.711-7.7 0-4.254 3.452-7.701 7.711-7.701 4.26 0 7.712 3.447 7.712 7.7s-3.452 7.7-7.712 7.7zm15.72-17.228H43.93c-1.484-1.547-5.094-5.257-5.593-5.257h-8.009c-.499 0-4.11 3.71-5.593 5.257h-5.752c-.983 0-1.78.796-1.78 1.777V46.13c0 .981.797 1.777 1.78 1.777h31.44c.984 0 1.78-.796 1.78-1.777V28.95c0-.981-.796-1.777-1.78-1.777m-9.787 9.527c0 3.245-2.656 5.875-5.933 5.875-3.276 0-5.932-2.63-5.932-5.875 0-3.244 2.656-5.874 5.932-5.874 3.277 0 5.933 2.63 5.933 5.874" fill="#6F7378"/></g></svg>
