<svg width="30" height="30" xmlns="http://www.w3.org/2000/svg"><g fill="none" fill-rule="evenodd"><path d="M14.57 28.62c7.76 0 14.05-6.29 14.05-14.05C28.62 6.81 22.33.52 14.57.52 6.81.52.52 6.81.52 14.57c0 7.76 6.29 14.05 14.05 14.05zm0 .52C6.523 29.14 0 22.617 0 14.57S6.523 0 14.57 0s14.57 6.523 14.57 14.57-6.523 14.57-14.57 14.57z" fill="#8C9095" fill-rule="nonzero"/><rect fill="#7F8389" x="7.285" y="8.846" width="2.081" height="3.122" rx="1"/><rect fill="#7F8389" x="7.285" y="13.529" width="2.081" height="3.122" rx="1"/><rect fill="#7F8389" x="8.326" y="18.213" width="12.489" height="2.081" rx="1"/><rect fill="#7F8389" x="11.448" y="8.846" width="2.081" height="3.122" rx="1"/><rect fill="#7F8389" x="11.448" y="13.529" width="2.081" height="3.122" rx="1"/><rect fill="#7F8389" x="15.611" y="8.846" width="2.081" height="3.122" rx="1"/><rect fill="#7F8389" x="15.611" y="13.529" width="2.081" height="3.122" rx="1"/><rect fill="#7F8389" x="19.774" y="8.846" width="2.081" height="3.122" rx="1"/><rect fill="#7F8389" x="19.774" y="13.529" width="2.081" height="3.122" rx="1"/></g></svg>
