<svg width="30" height="30" xmlns="http://www.w3.org/2000/svg"><g fill="#8C9095" fill-rule="evenodd"><path d="M14.844 29.159c7.906 0 14.315-6.41 14.315-14.315C29.159 6.94 22.749.53 14.844.53 6.94.53.53 6.94.53 14.844.53 22.75 6.94 29.16 14.844 29.16zm0 .53C6.646 29.689 0 23.043 0 14.844 0 6.646 6.646 0 14.844 0 23.043 0 29.69 6.646 29.69 14.844c0 8.199-6.646 14.845-14.845 14.845z" fill-rule="nonzero"/><path d="M10.294 17.363l-2.342-2.341 2.259-2.259c.572.615.922 1.44.922 2.346 0 .862-.316 1.65-.839 2.254zM11.796 18.865l1.5 1.5a7.66 7.66 0 0 0 2.079-5.256 7.662 7.662 0 0 0-2.164-5.346l-1.5 1.5a5.548 5.548 0 0 1 1.543 3.846 5.547 5.547 0 0 1-1.458 3.756z"/><path d="M15.172 22.241l1.313 1.314a12.157 12.157 0 0 0 3.661-8.71c0-3.323-1.329-6.334-3.483-8.534L15.086 7.89a10.304 10.304 0 0 1 2.94 7.22c0 2.766-1.086 5.277-2.854 7.132z"/></g></svg>
