<svg width="64" height="64" xmlns="http://www.w3.org/2000/svg"><g fill="none" fill-rule="evenodd"><circle fill="#9FCBFF" cx="32" cy="32" r="32"/><g transform="translate(14 17)"><path d="M21.441.588c-.58 0-.822.301-.812.686.01.384.28.606.79.606h1.18c1.521 0 2.353 2.13 2.142 3.804l-.706 5.754c-.906 5.084-4.17 6.272-5.463 6.272h-3.27c-1.46-.068-1.98-1.352-1.624-1.97l.363-.633.438-.772.562-1.125c.487-.976.177-1.993-1.872-1.914H3.363c-.44 0-.71.274-.707.62.002.347.234.682.707.682h.285c.271 0-.442 1.753-2.14 5.258C.33 20.59.828 19.434.386 20.506l-.228 2.602c.224 3.675 2.452 5.197 6.018 5.197 3.297 0 5.534-1.655 6.09-4.932h11.037c.56 3.277 3.483 3.463 6.78 3.463 3.702 0 4.135.144 4.135-3.728 0-2.494-1.47-4.682-4.413-6.564-1.04-.077-2.485-1.87-2.232-3.334L28.861 4.5c.023-.13.07-.254.131-.37.116-.224.209-.467.263-.726.011-.058.07-.506.07-.637 0-1.598-.839-2.18-2.363-2.18h-5.52z" fill="#222"/><circle fill="#222" cx="6.176" cy="22.647" r="6.176"/><circle fill="#222" cx="28.824" cy="22.647" r="6.176"/><path d="M27.436 1.88c.502 0 .572.554.572 1.068-.004.088-.028.247-.04.335-.018.078-.05.151-.088.224-.15.286-.187.59-.25.93l-1.393 8.446c-.312 1.891 1.027 4.298 3.188 4.86.122.016.191.026.208.032 1.251.43 1.744 1.539 1.744 3.338 0 2.841.929 3.276-2.05 3.276-2.977 0-4.925 1.657-5.342-.79-.15-.892-.347-1.522-1.25-1.522h-10.47c-.903 0-1.033.094-1.183.982-.433 2.57-2.562 3.293-4.906 3.293-2.559 0-3.434-.762-3.59-3.705-.001-.039.195-.673.59-1.904 0-.596-1.114.461-1.363.37-.044-.016-.333-.021-.29-.13l2.84-6.516c.387-.933.462-1.141.72-1.87h8.086c.173 0 .605.052.506.286a2.212 2.212 0 0 1-.258.451l-.46.8-.363.633c-.478.837-.623 1.899-.14 2.737.552.953 1.587 1.496 2.869 1.496h3.27c1.728 0 5.793-.787 6.714-7.114.052-.246.275-2.219.67-5.919.142-1.345.232-2.572-.49-3.626a4.038 4.038 0 0 0-.413-.51l1.888.049h.474z" fill="#FF9576"/><circle fill="#FF9576" cx="6.176" cy="22.647" r="4.941"/><path d="M5.307 3.626c-1.463 0-2.638 1.14-2.638 2.669V9.29a1 1 0 0 0 1 1h10.137a1 1 0 0 0 1-1V6.295c0-1.68-1.025-2.669-2.408-2.669h-7.09z" fill="#222"/><path d="M12.365 4.828c.564 0 1.052.76 1.052 1.467v2.714h-9.37V6.353c0-.87.58-1.498 1.228-1.525h7.23-.14z" fill="#FFF"/><circle fill="#FF9576" cx="28.824" cy="22.647" r="4.941"/><circle stroke="#000" stroke-width="1.2" fill="#FFF" cx="6" cy="23" r="2"/><circle stroke="#000" stroke-width="1.2" fill="#FFF" cx="29" cy="23" r="2"/></g></g></svg>