<svg width="64" height="64" xmlns="http://www.w3.org/2000/svg"><g fill="none" fill-rule="evenodd"><circle cx="32" cy="32" r="32" fill="#FF8461"/><g fill-rule="nonzero"><path d="M22.555 24.847l1.126-5.877a.319.319 0 0 1 .311-.262h16.002a.319.319 0 0 1 .312.262l1.125 5.877H22.555z" fill="#FFF"/><path d="M39.675 19.416l.9 4.723H23.412l.899-4.723h15.364zM40.001 18H23.992a1.027 1.027 0 0 0-1.005.836l-1.289 6.719h20.59l-1.282-6.72A1.027 1.027 0 0 0 39.994 18h.007z" fill="#222"/><path fill="#10D1FF" d="M15.708 22.956h32.57v21.242h-32.57z"/><path d="M46.862 23.664c.391 0 .708.317.708.708v18.41a.708.708 0 0 1-.708.708H17.124a.708.708 0 0 1-.708-.708v-18.41c0-.39.317-.708.708-.708h29.738zm0-1.416H17.124A2.124 2.124 0 0 0 15 24.372v18.41c0 1.173.951 2.124 2.124 2.124h29.738a2.124 2.124 0 0 0 2.124-2.124v-18.41a2.124 2.124 0 0 0-2.124-2.124z" fill="#222"/><path d="M31.993 41.21a7.633 7.633 0 1 1 7.633-7.633 7.647 7.647 0 0 1-7.633 7.633z" fill="#FFF"/><path d="M31.993 26.652a6.925 6.925 0 1 1-6.925 6.925 6.932 6.932 0 0 1 6.925-6.925zm0-1.416a8.34 8.34 0 1 0 0 16.682 8.34 8.34 0 0 0 0-16.682z" fill="#222"/><path d="M30.414 36.312a3.158 3.158 0 1 0 3.158-5.47 3.158 3.158 0 0 0-3.158 5.47z" fill="#10D1FF"/><path d="M31.993 31.127a2.45 2.45 0 1 1 0 4.9 2.45 2.45 0 0 1 0-4.9zm0-1.416a3.866 3.866 0 1 0 0 7.732 3.866 3.866 0 0 0 0-7.732z" fill="#222"/><path fill="#FFF" d="M41.467 25.378h4.453v2.336h-4.453z"/><path d="M45.212 26.086v.92h-3.037v-.92h3.037zm.114-1.416h-3.257c-.72 0-1.303.583-1.303 1.303v1.14c0 .72.583 1.302 1.303 1.302h3.257c.72 0 1.302-.583 1.302-1.302v-1.14c0-.72-.583-1.303-1.302-1.303z" fill="#222"/></g></g></svg>