<svg width="64" height="64" xmlns="http://www.w3.org/2000/svg"><g fill="none" fill-rule="evenodd"><circle fill="#FFAA3A" cx="32" cy="32" r="32"/><g opacity=".851" fill="#000"><path d="M36.706 16c-4.698 0-8.725 2.867-10.427 6.949C20.517 23.464 16 28.301 16 34.196v13.177a.626.626 0 0 0 1.071.442l4.123-4.122a11.207 11.207 0 0 0 6.1 1.797c4.7 0 8.727-2.87 10.428-6.952a11.181 11.181 0 0 0 5.084-1.747l4.123 4.122A.626.626 0 0 0 48 40.47V27.294C48 21.057 42.943 16 36.706 16z"/><path d="M46.745 38.955l-3.8-3.799a9.98 9.98 0 0 1-4.77 2.068c.267-.964.413-1.977.413-3.028 0-6.111-4.854-11.084-10.916-11.285a10.04 10.04 0 0 1 9.034-5.656c5.544 0 10.04 4.496 10.04 10.04v11.66z"/><path d="M27.294 44.235a9.994 9.994 0 0 1-6.24-2.177l-3.8 3.8V34.195c0-5.543 4.496-10.04 10.04-10.04 5.545 0 10.04 4.497 10.04 10.04 0 5.544-4.495 10.04-10.04 10.04z"/></g><path d="M36.706 17.255a10.042 10.042 0 0 0-9.04 5.656c6.065.198 10.922 5.174 10.922 11.285 0 1.03-.14 2.027-.399 2.974a9.981 9.981 0 0 0 4.756-2.055l3.8 3.793V27.272c0-5.53-4.495-10.017-10.04-10.017" fill="#81D8D0"/><path d="M17.255 34.196v11.661l3.8-3.799a9.994 9.994 0 0 0 6.24 2.177c5.544 0 10.038-4.495 10.038-10.039 0-5.543-4.494-10.04-10.039-10.04-5.544 0-10.04 4.497-10.04 10.04z" fill="#97ACFF"/><path d="M36.706 17.255a10.042 10.042 0 0 0-9.04 5.656c6.065.198 10.922 5.174 10.922 11.285 0 1.03-.14 2.027-.399 2.974a9.981 9.981 0 0 0 4.756-2.055l3.8 3.793V27.272c0-5.53-4.495-10.017-10.04-10.017" fill="#FFF"/><path d="M31.489 32.2c.846 0 .839-1.2 0-1.2h-8.833a.602.602 0 0 0 0 1.2h8.833zM41.489 25.2c.846 0 .839-1.2 0-1.2h-7.216s.472.312.82.6c.349.288.656.6.656.6h5.74zM41.498 28.2c.846 0 .84-1.2 0-1.2H37.28s.32.368.468.6c.148.232.362.6.362.6h3.388zM27.06 35.2c.846 0 .839-1.2 0-1.2h-4.404a.602.602 0 0 0 0 1.2h4.404z" fill="#222"/></g></svg>