<svg width="64" height="64" xmlns="http://www.w3.org/2000/svg"><g fill="none" fill-rule="evenodd"><circle fill="#FF99C7" cx="32" cy="32" r="32"/><g transform="translate(16 16)"><circle fill="#FFF" cx="16" cy="16" r="15.238"/><path d="M15.604 31.724c8.416 0 16.287-7.308 16.287-15.724S24.02.239 15.604.239c-3.17 0-7.296 1.792-9.237 3.448C3.156 6.427.225 10.754.225 16c0 5.3 2.864 10.019 6.142 12.749 1.928 1.605 6.121 2.975 9.237 2.975z" fill="#8AF6E3"/><circle fill="#FFF" cx="11.048" cy="21.714" r="2.667"/><circle fill="#FFF" cx="6.476" cy="14.857" r="1.143"/><circle fill="#FFF" cx="23.238" cy="18.667" r="1.143"/><path d="M11.048 18.286a3.432 3.432 0 0 0-3.429 3.428 3.432 3.432 0 0 0 3.429 3.429 3.432 3.432 0 0 0 3.428-3.429 3.432 3.432 0 0 0-3.428-3.428zm0 5.525a2.1 2.1 0 0 1-2.097-2.097 2.1 2.1 0 0 1 2.097-2.097 2.1 2.1 0 0 1 2.097 2.097 2.1 2.1 0 0 1-2.097 2.097zM8.381 14.857c0-1.05-.855-1.905-1.905-1.905s-1.905.855-1.905 1.905.855 1.905 1.905 1.905 1.905-.855 1.905-1.905zm-1.905.52a.52.52 0 1 1 .001-1.04.52.52 0 0 1 0 1.04zM23.238 16.762c-1.05 0-1.905.854-1.905 1.905 0 1.05.855 1.904 1.905 1.904s1.905-.854 1.905-1.904c0-1.05-.855-1.905-1.905-1.905zm0 2.424a.52.52 0 1 1 .001-1.04.52.52 0 0 1 0 1.04zM5.71 8.86a12.469 12.469 0 0 1 5.341-4.57.656.656 0 0 0 .327-.85.615.615 0 0 0-.819-.34C8.177 4.162 6.144 5.902 4.68 8.131a.663.663 0 0 0 .165.9c.107.075.23.112.35.112.2 0 .395-.1.516-.283zM15.414 2.286c-.658 0-1.32.058-1.965.174-.32.057-.54.404-.49.774.045.336.295.576.579.576.03 0 .06-.003.09-.008a10.168 10.168 0 0 1 1.786-.159c.324 0 .586-.304.586-.678 0-.375-.262-.68-.586-.68z" fill="#222"/><circle stroke="#222" stroke-width="1.2" cx="16" cy="16" r="16"/></g></g></svg>