<svg width="64" height="64" xmlns="http://www.w3.org/2000/svg" xmlns:xlink="http://www.w3.org/1999/xlink"><defs><rect id="a" x="24" y="35" width="13" height="6" rx="1"/><path d="M20.302 20h25.365a1 1 0 0 1 1 1v12a1 1 0 0 1-1 1H20.302a1 1 0 0 1-.769-.36L14 27l5.533-6.64a1 1 0 0 1 .769-.36z" id="b"/><path d="M27.972 38.973l16.53-.46a1 1 0 0 1 .809.376L47 41l-1.689 2.111a1 1 0 0 1-.809.375l-16.53-.459a1 1 0 0 1-.972-1v-2.054a1 1 0 0 1 .972-1z" id="c"/><rect id="d" x="39.542" y="40.801" width="5" height="1" rx=".5"/><rect id="e" x="38.046" y="41.24" width="1.2" height="1" rx=".5"/><rect id="f" x="21.025" y="21.425" width="12" height="1" rx=".5"/><rect id="g" x="18.345" y="22.268" width="4" height="1" rx=".5"/><rect id="h" x="34.349" y="21.915" width="1.3" height="1" rx=".5"/></defs><g fill="none" fill-rule="evenodd"><circle fill="#F8E71C" cx="32" cy="32" r="32"/><path d="M18.5 50H46" stroke="#000"/><use fill="#8B572A" xlink:href="#a"/><rect stroke="#000" x="24.5" y="35.5" width="12" height="5" rx="1"/><path d="M30 50V17.5c.667-1 1.333-1.5 2-1.5s1.333.5 2 1.5V50h-4z" stroke="#000" fill="#8B572A"/><g transform="rotate(4 30.333 27)"><use fill="#8B572A" xlink:href="#b"/><path stroke="#000" d="M14.65 27l5.268 6.32a.5.5 0 0 0 .384.18h25.365a.5.5 0 0 0 .5-.5V21a.5.5 0 0 0-.5-.5H20.302a.5.5 0 0 0-.384.18L14.65 27z"/></g><g transform="rotate(-7 37 41)"><use fill="#8B572A" xlink:href="#c"/><path stroke="#000" d="M46.36 41l-1.44-1.799a.5.5 0 0 0-.404-.187l-16.53.459a.5.5 0 0 0-.486.5v2.054a.5.5 0 0 0 .486.5l16.53.46a.5.5 0 0 0 .405-.188L46.36 41z"/></g><g transform="rotate(-7 42.042 41.3)"><use fill="#D8D8D8" xlink:href="#d"/><rect stroke="#FFF" x="40.042" y="41.301" width="4" height="1" rx=".5"/></g><g transform="rotate(-7 38.646 41.74)"><use fill="#D8D8D8" xlink:href="#e"/><rect stroke="#FFF" stroke-width=".5" x="38.296" y="41.49" width="1" height="1" rx=".5"/></g><text transform="rotate(4 32.056 27.386)" font-family="Chalkduster" font-size="6" fill="#FFF"><tspan x="19.287" y="30.386">Waiting</tspan></text><text transform="rotate(4 32.24 27.111)" font-family="Chalkduster" font-size="6" fill="#FFF"><tspan x="19.471" y="30.111">Waiting</tspan></text><g transform="rotate(4 27.025 21.925)"><use fill="#D8D8D8" xlink:href="#f"/><rect stroke="#000" x="21.525" y="21.925" width="11" height="1" rx=".5"/></g><g transform="rotate(135 20.345 22.768)"><use fill="#D8D8D8" xlink:href="#g"/><rect stroke="#000" x="18.845" y="22.768" width="3" height="1" rx=".5"/></g><g transform="rotate(6 34.999 22.415)"><use fill="#D8D8D8" xlink:href="#h"/><rect stroke="#000" stroke-width=".5" x="34.599" y="22.165" width="1" height="1" rx=".5"/></g></g></svg>