<?xml version="1.0" encoding="UTF-8"?>
<svg width="23px" height="21px" viewBox="0 0 23 21" version="1.1" xmlns="http://www.w3.org/2000/svg" xmlns:xlink="http://www.w3.org/1999/xlink">
    <!-- Generator: Sketch 49.3 (51167) - http://www.bohemiancoding.com/sketch -->
    <title>Group 71</title>
    <desc>Created with Sketch.</desc>
    <defs></defs>
    <g id="最青春2.0学生端优化版Fan" stroke="none" stroke-width="1" fill="none" fill-rule="evenodd">
        <g id="Group-71">
            <rect id="Rectangle-89-Copy" fill="#81D8D0" x="0" y="0" width="19" height="14" rx="2"></rect>
            <path d="M2,1 C1.44771525,1 1,1.44771525 1,2 L1,12 C1,12.5522847 1.44771525,13 2,13 L17,13 C17.5522847,13 18,12.5522847 18,12 L18,2 C18,1.44771525 17.5522847,1 17,1 L2,1 Z M2,0 L17,0 C18.1045695,0 19,0.8954305 19,2 L19,12 C19,13.1045695 18.1045695,14 17,14 L2,14 C0.8954305,14 0,13.1045695 0,12 L0,2 C0,0.8954305 0.8954305,0 2,0 Z" id="Rectangle-89-Copy" fill="#353535" fill-rule="nonzero"></path>
            <path d="M4,2 L21,2 C22.1045695,2 23,2.8954305 23,4 L23,15.5653515 C23,16.669921 22.1045695,17.5653515 21,17.5653515 L17.9329147,17.5653515 L14.9813988,21 L11.9544521,17.5653515 L4,17.5653515 C2.8954305,17.5653515 2,16.669921 2,15.5653515 L2,4 C2,2.8954305 2.8954305,2 4,2 Z" id="Rectangle-89" fill="#FFFFFF"></path>
            <path d="M17.1744804,16.9136019 L17.4737444,16.5653515 L21,16.5653515 C21.5522847,16.5653515 22,16.1176362 22,15.5653515 L22,4 C22,3.44771525 21.5522847,3 21,3 L4,3 C3.44771525,3 3,3.44771525 3,4 L3,15.5653515 C3,16.1176362 3.44771525,16.5653515 4,16.5653515 L12.4060782,16.5653515 L12.7046827,16.9041752 L14.9718809,19.4767442 L17.1744804,16.9136019 Z M4,2 L21,2 C22.1045695,2 23,2.8954305 23,4 L23,15.5653515 C23,16.669921 22.1045695,17.5653515 21,17.5653515 L17.9329147,17.5653515 L14.9813988,21 L11.9544521,17.5653515 L4,17.5653515 C2.8954305,17.5653515 2,16.669921 2,15.5653515 L2,4 C2,2.8954305 2.8954305,2 4,2 Z" id="Rectangle-89" fill="#353535" fill-rule="nonzero"></path>
            <circle id="Oval" fill="#353535" cx="18" cy="10" r="1"></circle>
            <circle id="Oval-Copy" fill="#353535" cx="13" cy="10" r="1"></circle>
            <circle id="Oval-Copy-2" fill="#353535" cx="8" cy="10" r="1"></circle>
        </g>
    </g>
</svg>