<svg width="23" height="23" xmlns="http://www.w3.org/2000/svg" xmlns:xlink="http://www.w3.org/1999/xlink"><defs><path d="M12.25 0H2a2 2 0 0 0-2 2v18.5a2 2 0 0 0 2 2h15a2 2 0 0 0 2-2V6.75h-4.75a2 2 0 0 1-2-2V0z" id="a"/></defs><g fill="none" fill-rule="evenodd"><path fill="#81D8D0" d="M13.99.749l5.885 6.001H14.25z"/><path d="M13.93.392l6.721 6.713c-4.44-4.44-6.68-6.678-6.721-6.713z" stroke="#353535"/><g transform="translate(2)"><use fill="#FFF" xlink:href="#a"/><path stroke="#353535" d="M11.75.5H2A1.5 1.5 0 0 0 .5 2v18.5A1.5 1.5 0 0 0 2 22h15a1.5 1.5 0 0 0 1.5-1.5V7.25h-4.25a2.5 2.5 0 0 1-2.5-2.5V.5z"/></g><g transform="translate(7 8)" fill="#353535"><rect y="3.6" width="9" height="1.8" rx=".9"/><rect transform="rotate(90 4.5 4.5)" y="3.6" width="9" height="1.8" rx=".9"/></g></g></svg>
