<svg width="23" height="23" xmlns="http://www.w3.org/2000/svg" xmlns:xlink="http://www.w3.org/1999/xlink"><defs><path d="M11.5 17.25l-4.966 2.61a1 1 0 0 1-1.451-1.053l.948-5.53L2.014 9.36a1 1 0 0 1 .554-1.706l5.552-.807 2.483-5.031a1 1 0 0 1 1.794 0l2.483 5.031 5.552.807a1 1 0 0 1 .554 1.706l-4.017 3.916.948 5.53a1 1 0 0 1-1.45 1.054L11.5 17.25z" id="a"/></defs><g fill="none" fill-rule="evenodd"><use fill="#81D8D0" xlink:href="#a"/><path stroke="#353535" d="M6.301 19.418l5.199-2.733 5.199 2.733a.5.5 0 0 0 .725-.527l-.993-5.789 4.206-4.1a.5.5 0 0 0-.277-.852l-5.812-.845-2.6-5.267a.5.5 0 0 0-.896 0l-2.6 5.267-5.812.845a.5.5 0 0 0-.277.853l4.206 4.1-.993 5.788a.5.5 0 0 0 .725.527z"/></g></svg>