<svg width="23" height="23" xmlns="http://www.w3.org/2000/svg"><g fill="none" fill-rule="evenodd"><path fill="#81D8D0" d="M1 2l7 .943V21l-7-1.692z"/><g stroke="#353535"><path d="M1 18.838c0 .735.297 1.105 1.013 1.27l5.415 1.276c.26.06.532.053.789-.02l6.566-1.877a1.58 1.58 0 0 1 .789-.02l4.606 1.118c.988.228 1.822-.45 1.822-1.465V3.682c0-.734-.348-1.192-1.064-1.357l-5.364-1.234a1.58 1.58 0 0 0-.789.02L8.217 2.989a1.58 1.58 0 0 1-.789.02l-4.71-1.066C1.73 1.713 1 2.292 1 3.307v15.531zM8 3.104V20.95M15 1.525v17.876"/></g></g></svg>
