<svg width="23" height="23" xmlns="http://www.w3.org/2000/svg"><g fill="none" fill-rule="evenodd"><path d="M2.587 3.212c.14-.002 6.133-.002 17.976 0 .52.35.718.588.59.716-.126.128-3.065 2.652-8.817 7.572H11.5C5.908 7.115 2.937 4.757 2.587 4.426c-.525-.498-.21-1.21 0-1.214z" fill="#81D8D0"/><g stroke="#353535"><path d="M3.544 19.5C1.887 19.5 1 18.59 1 16.933V5.55C1 3.892 2.118 3 3.775 3H19.53C21.187 3 22 3.972 22 5.63v11.157c0 1.657-.966 2.713-2.623 2.713H3.544z"/><path d="M2 4l8.529 7.178c.56.474 1.382.474 1.942 0L21 4"/></g></g></svg>
