<svg width="23" height="23" xmlns="http://www.w3.org/2000/svg"><g fill="none" fill-rule="evenodd"><path fill="#81D8D0" d="M21.336 2.677l-2.269 8.479-3.863 4.572-3.555 1.208-4.889-.921-2.077-2.297-.813-3.613.813-3.535L6.76 4.408 9.893 3.01l3.897-.49z"/><path d="M21.837 2.22a.515.515 0 0 0-.411-.203h-.502c-4.904 0-8.781 0-11.644.72-1.54.384-2.737.972-3.65 1.788-.98.889-1.653 2.041-2.052 3.542-.262.996-.388 2.797.137 4.574a6.48 6.48 0 0 0 .867 1.824c-.543.983-.86 1.787-1.112 2.635-.277.933-.385 1.928-.385 3.488 0 .312.252.54.56.54.297 0 .458-.216.458-.54 0-4.382 1.836-6.423 3.307-8.055.103-.108.205-.228.296-.325 1.13-1.188 2.436-2.27 3.725-2.978 1.197-.66 2.308-1.007 3.187-1.007.296 0 .547-.192.547-.516 0-.312-.24-.576-.547-.576-1.061 0-2.35.396-3.718 1.152-1.392.768-2.76 1.837-3.958 3.11a17.676 17.676 0 0 0-1.676 2.052 4.837 4.837 0 0 1-.49-1.152c-.48-1.657-.347-3.229-.165-3.913 1.38-5.21 6.289-5.42 16.313-5.348-1.14 6.374-3.398 10.63-6.432 12.394-2.817 1.644-5.622.744-6.694.288a4.077 4.077 0 0 1-.673-.36c-.064-.037-.5-.273-.849-.59-.332-.302-.578-.686-.645-.668-.137.036-.297-.049-.365.083-.08.132-.525.394-.49.538.018.078.46.592.924.997.395.344.82.591.877.624.263.168.536.312.822.432a9.196 9.196 0 0 0 3.603.745c1.437 0 2.794-.36 4.026-1.08 1.574-.913 2.931-2.402 4.049-4.43 1.3-2.366 2.28-5.51 2.908-9.328a.75.75 0 0 0-.148-.456z" fill="#353535" fill-rule="nonzero"/></g></svg>
