<svg width="23" height="23" xmlns="http://www.w3.org/2000/svg" xmlns:xlink="http://www.w3.org/1999/xlink"><defs><path d="M9 18c.768 0-1.216 3.142-.504 2.96 1.028-.26 6.199-4.98 6.49-5.24A8.965 8.965 0 0 0 18 9a9 9 0 1 0-9 9z" id="a"/></defs><g fill="none" fill-rule="evenodd"><g transform="translate(3 1)"><use fill="#81D8D0" xlink:href="#a"/><path stroke="#353535" d="M8.628 18.493A9.5 9.5 0 1 1 18.5 9a9.463 9.463 0 0 1-3.181 7.094c.08-.07-.604.545-.993.892a124.99 124.99 0 0 1-2.344 2.04c-1.715 1.449-2.83 2.284-3.363 2.42-.342.086-.676-.085-.76-.443-.04-.168-.02-.336.039-.55.066-.246.13-.41.399-1.07l.035-.087c.15-.368.242-.616.296-.803z"/></g><path d="M12 14.765a3.706 3.706 0 0 0 3.706-3.706H8.294A3.706 3.706 0 0 0 12 14.765z" stroke="#353535" fill="#FFF"/></g></svg>
