<svg width="23" height="23" xmlns="http://www.w3.org/2000/svg" xmlns:xlink="http://www.w3.org/1999/xlink"><defs><path d="M7.054 0h4.892a1 1 0 0 1 .949.684L19 19h-4.38l-1.253-3.894H5.538l-1.343 3.9L0 19 6.105.684A1 1 0 0 1 7.055 0z" id="a"/></defs><g fill="none" fill-rule="evenodd"><g transform="translate(2 2)"><use fill="#81D8D0" xlink:href="#a"/><path stroke="#353535" d="M.693 18.5l3.146.005 1.343-3.9H13.73l1.253 3.895h3.322L12.42.842A.5.5 0 0 0 11.946.5H7.054a.5.5 0 0 0-.474.342L.693 18.5z"/></g><path stroke="#353535" fill="#FFF" d="M11 5.665h1l2.902 8.076H8.176z"/></g></svg>
