<svg width="23" height="23" xmlns="http://www.w3.org/2000/svg" xmlns:xlink="http://www.w3.org/1999/xlink"><defs><path d="M3 12h3a1 1 0 0 1 1 1v7H2v-7a1 1 0 0 1 1-1z" id="a"/><path d="M10 1h3a1 1 0 0 1 1 1v18H9V2a1 1 0 0 1 1-1z" id="b"/><path d="M17 6h3a1 1 0 0 1 1 1v13h-5V7a1 1 0 0 1 1-1z" id="c"/></defs><g fill="none" fill-rule="evenodd"><use fill="#81D8D0" xlink:href="#a"/><path stroke="#222" d="M2.5 19.5h4V13a.5.5 0 0 0-.5-.5H3a.5.5 0 0 0-.5.5v6.5z"/><use fill="#81D8D0" xlink:href="#b"/><path stroke="#222" d="M9.5 19.5h4V2a.5.5 0 0 0-.5-.5h-3a.5.5 0 0 0-.5.5v17.5z"/><g><use fill="#81D8D0" xlink:href="#c"/><path stroke="#222" d="M16.5 19.5h4V7a.5.5 0 0 0-.5-.5h-3a.5.5 0 0 0-.5.5v12.5z"/></g></g></svg>
