<svg width="23" height="23" id="图层_1" xmlns="http://www.w3.org/2000/svg" viewBox="0 0 23 23"><style>.st0{fill:#81d8d0}.st1{fill:none;stroke:#353535}.st2{fill:#353535}</style><g id="Symbols"><g id="wode_lianxiwomen"><g id="Group" transform="translate(0 10)"><g id="Rectangle-31"><path id="path-1" class="st0" d="M2.1.4h1.8c1 0 1.8.8 1.8 1.8v4.5c0 1-.8 1.8-1.8 1.8H2.1c-1 0-1.8-.8-1.8-1.8V2.2c0-1 .8-1.8 1.8-1.8z"/><path class="st1" d="M2.5.5h1c1.1 0 2 .9 2 2v4c0 1.1-.9 2-2 2h-1c-1.1 0-2-.9-2-2v-4c0-1.1.9-2 2-2z"/></g></g><g id="Group-Copy" transform="matrix(-1 0 0 1 23 10)"><g id="Rectangle-31_1_"><path id="path-2" class="st0" d="M2.2.7h1.7c.9 0 1.7.8 1.7 1.7v4.3c0 .9-.8 1.7-1.7 1.7H2.2C1.3 8.4.5 7.6.5 6.7V2.4c0-1 .8-1.7 1.7-1.7z"/><path class="st1" d="M2.5.5h1c1.1 0 2 .9 2 2v4c0 1.1-.9 2-2 2h-1c-1.1 0-2-.9-2-2v-4c0-1.1.9-2 2-2z"/></g></g><path id="Rectangle-34" class="st2" d="M20.5 18c.3 0 .5.2.5.5v3c0 .3-.2.5-.5.5s-.5-.2-.5-.5v-3c0-.3.2-.5.5-.5z"/><path id="Rectangle-34-Copy" class="st2" d="M21 21.5c0 .3-.2.5-.5.5h-8c-.3 0-.5-.2-.5-.5s.2-.5.5-.5h8c.2 0 .5.2.5.5z"/><path id="mMM" class="st1" d="M21 10.5v-.2C20.9 5.1 16.7 1 11.5 1S2.1 5.2 2 10.3v.2"/></g></g></svg>
