<svg width="23" height="23" xmlns="http://www.w3.org/2000/svg"><g fill="none" fill-rule="evenodd"><path fill="#81D8D0" d="M.994 10.811L11.995 16.5l8.791 5.37-19.285-.267z"/><path fill="#81D8D0" d="M12 16.129l9.696-5.438v10.594l-6.414-2.742z"/><g stroke="#353535" stroke-linecap="round" stroke-linejoin="round"><path d="M4.818 7.777L1 10.545v8.927c0 1.468.812 2.39 2.243 2.39 1.43 0 14.99.133 16.557.154 1.65.021 2.2-1.124 2.2-2.544v-8.927l-3.818-2.768"/><path d="M4.818 12.645V2.702C4.818 1.615 5.476 1 6.517 1h10.096c.975 0 1.569.634 1.569 1.702v9.943M1 10.545l19.87 10.882M22 10.545l-10.5 5.728"/></g></g></svg>
