<svg width="134" height="96" xmlns="http://www.w3.org/2000/svg"><g fill="none" fill-rule="evenodd"><path d="M111.276 32.71c7.638 22.626-2.804 47.859-24.953 58.187-22.042 10.278-47.939 2.187-60.433-17.992.522.232 1.046.433 1.572.603C39.948 92.43 64.74 99.858 85.901 89.99c21.278-9.923 31.52-33.898 24.827-55.723.207-.502.39-1.022.548-1.558zm-8.524-15.274c-.306.193-.586.377-.842.552C88.72 2.215 66.115-3.397 46.597 5.704c-19.647 9.162-29.885 30.304-26.07 50.673-.3.086-.62.185-.963.297-3.956-20.841 6.504-42.5 26.61-51.876C66.15-4.516 89.29 1.255 102.752 17.436z" fill="#C0EBE7" fill-rule="nonzero"/><path d="M107.731 38.561c4.288 19.066-5.084 39.207-23.521 47.805-18.424 8.591-39.86 2.838-51.715-12.678.683-.233 1.24-.598 1.746-1.012 11.328 14.632 31.647 20.026 49.124 11.877 17.456-8.14 26.384-27.138 22.492-45.202.636-.143 1.266-.37 1.874-.79zM98.936 20.67c-.41.431-.87.922-1.377 1.474-11.451-13.968-31.303-18.986-48.426-11-17.157 8-26.076 26.49-22.68 44.272-.746.034-1.418.068-2.017.104-3.422-18.578 5.934-37.834 23.851-46.19C66.172.99 86.895 6.167 98.937 20.67z" fill="#C0EBE7" fill-rule="nonzero"/><path d="M38.67 65.049a33.604 33.604 0 0 0-.11-1.938l.89-.699c7.628 14.066 24.993 19.93 39.689 13.078C94.405 68.37 101.01 50.224 93.89 34.958 86.772 19.69 68.625 13.086 53.36 20.205c-15.267 7.119-21.872 25.266-14.753 40.532l.01.021-.609.284-2.364-2.254c-5.607-15.628 1.526-33.24 16.87-40.395 16.268-7.586 35.605-.548 43.19 15.72 7.586 16.267.548 35.604-15.72 43.19-15.06 7.022-32.751 1.511-41.313-12.254z" fill="#C0EBE7" fill-rule="nonzero"/><path d="M77.026 70.958C89.789 65.007 95.31 49.835 89.36 37.071c-5.952-12.764-21.124-18.286-33.888-12.334-12.764 5.952-18.286 21.124-12.334 33.887C49.09 71.388 64.262 76.91 77.026 70.958zm.422.907c-13.264 6.185-29.031.446-35.216-12.818-6.186-13.264-.447-29.031 12.817-35.217 13.265-6.185 29.032-.446 35.217 12.818 6.185 13.264.446 29.031-12.818 35.217z" fill="#C0EBE7" fill-rule="nonzero"/><text transform="rotate(-25 33.328 67.366)" font-family="PingFangSC-Medium, PingFang SC" font-size="14" font-weight="400" fill="#8BEAE8"><tspan x="50.913" y="69.089">已解答</tspan></text><path d="M96.306 38.34c2.406 2.279 5.568 3.192 8.608 2.656a10.193 10.193 0 0 0 3.737-1.472 8.925 8.925 0 0 0 3.115-3.366c.885.61 2.226 1.198 3.923.933 1.508-.241 2.92-1.082 3.788-2.313.27-.382.471-.77.595-1.145 2.285-.198 5.506-1.307 6.127-4.555 1.343-.284 4.03-1.097 5.633-3.233 1.103-1.47 1.49-3.27 1.15-5.347a1.007 1.007 0 0 0-.012-.064c-.076-.329-1.98-8.056-14.106-7.773-12.903.303-18.978 5.492-22.425 9.369-4.468 5.025-3.74 12.895-.133 16.31zm1.656-14.926c3.194-3.593 8.843-8.405 20.958-8.687 10.151-.238 11.938 5.716 12.052 6.14.237 1.5-.015 2.719-.77 3.726-1.604 2.137-5.004 2.57-5.04 2.569-.053.005-.098.03-.148.042-.393-.014-1.732-.158-2.649-1.405a1.02 1.02 0 0 0-1.43-.217 1.039 1.039 0 0 0-.209 1.444c1.025 1.395 2.367 1.918 3.32 2.118-.923 2.501-4.66 2.457-4.839 2.453l-.013.003c-.005 0-.009-.003-.013-.003-.073-.001-1.524-.036-2.381-1.5a1.017 1.017 0 0 0-1.4-.366c-.486.289-.646.921-.358 1.413.823 1.406 1.976 2.015 2.864 2.29-.391.595-1.213 1.378-2.537 1.616-1.36.212-2.36-.466-2.859-.91.294-1.198.647-3.821-.997-6.294-1.218-1.831-3.375-2.806-5.631-2.542-1.976.239-3.597 1.399-4.203 3.046-.611 1.662-.34 3.475.692 4.618.892.989 2.219 1.33 3.666.94a1.03 1.03 0 0 0 .716-1.267 1.031 1.031 0 0 0-1.256-.729c-.694.196-1.246.08-1.619-.334-.503-.557-.62-1.586-.283-2.502.338-.918 1.297-1.576 2.53-1.72 1.168-.136 2.752.222 3.693 1.637 1.583 2.382.598 5.032.589 5.059-.012.03-.007.063-.016.095-.006.02-.024.032-.029.052-.018.078-.52 2.11-2.81 3.58-3.207 2.055-7.074 1.684-9.851-.943-2.87-2.718-3.394-9.311.26-13.422zM40.235 66.046c-.032 3.313-1.572 6.222-4.069 8.037a10.193 10.193 0 0 1-3.655 1.665 8.925 8.925 0 0 1-4.584-.097c-.176 1.061-.685 2.434-2.054 3.47-1.222.917-2.807 1.348-4.296 1.118a4.412 4.412 0 0 1-1.237-.367c-1.73 1.506-4.765 3.053-7.532 1.243-1.138.768-3.59 2.137-6.24 1.806-1.823-.228-3.386-1.199-4.644-2.887a1.007 1.007 0 0 1-.038-.053c-.184-.283-4.42-7.02 4.207-15.546 9.181-9.072 17.134-9.837 22.317-9.624 6.719.278 11.874 6.268 11.825 11.235zm-11.887-9.178c-4.803-.198-12.19.523-20.808 9.042-7.223 7.136-4.18 12.558-3.955 12.935.914 1.212 1.967 1.877 3.216 2.034 2.651.33 5.323-1.815 5.349-1.841.04-.035.089-.05.133-.077.263-.293 1.09-1.356.829-2.882a1.02 1.02 0 0 1 .837-1.179 1.039 1.039 0 0 1 1.184.853c.292 1.706-.264 3.034-.783 3.86 2.44 1.073 5.005-1.647 5.126-1.778.003-.003.008-.004.011-.008.004-.003.004-.007.008-.01.05-.054 1.032-1.122.575-2.755a1.017 1.017 0 0 1 .708-1.262 1.036 1.036 0 0 1 1.266.725c.44 1.568.077 2.82-.343 3.65.7.132 1.834.086 2.925-.702 1.097-.83 1.305-2.022 1.331-2.689-1.065-.62-3.198-2.189-3.834-5.09-.471-2.147.326-4.376 2.083-5.816 1.545-1.255 3.505-1.616 5.111-.907 1.62.715 2.735 2.17 2.841 3.705.092 1.329-.585 2.52-1.871 3.29a1.03 1.03 0 0 1-1.408-.365 1.031 1.031 0 0 1 .348-1.41c.623-.363.922-.84.884-1.395-.051-.75-.71-1.548-1.603-1.942-.895-.395-2.034-.162-2.994.624-.91.746-1.753 2.134-1.388 3.795.613 2.793 3.203 3.925 3.23 3.937.03.013.05.039.08.055.017.01.038.004.056.015.07.041 1.88 1.092 4.527.465 3.707-.879 6.126-3.918 6.165-7.74.039-3.953-4.34-8.91-9.836-9.137z" fill="#C0EBE7" fill-rule="nonzero"/></g></svg>
