<svg width="15" height="13" xmlns="http://www.w3.org/2000/svg"><path d="M11.04 9.05l2.477-5.989c.173-.43.86-.257.688.172 0 .086-.086.086-.086.172l-3.017 7.54c-.021.061-.045.12-.071.178l-.04.098-.02.019c-.305.547-.89.918-1.56.918H1.785C.8 12.158 0 11.358 0 10.375v-.332c0-1.79 1.46-3.25 3.25-3.25h.673A3.626 3.626 0 0 1 2.01 3.607c0-.998.399-1.921 1.121-2.609A3.565 3.565 0 0 1 5.802.015c.934.05 1.805.458 2.446 1.149.642.69.984 1.59.963 2.527a3.566 3.566 0 0 1-1.904 3.095l.638.007c1.445 0 2.673.95 3.095 2.257zm-.48 1.38v-.387a2.62 2.62 0 0 0-2.615-2.615h-.951a.316.316 0 0 1-.318-.317v-.522c0-.124.074-.236.187-.29a2.938 2.938 0 0 0 1.72-2.622C8.62 2.091 7.36.73 5.777.646a2.947 2.947 0 0 0-2.203.81 2.935 2.935 0 0 0-.923 2.15c0 1.16.677 2.218 1.727 2.694a.318.318 0 0 1 .187.289v.522a.316.316 0 0 1-.317.317H3.25a2.62 2.62 0 0 0-2.615 2.615v.332c0 .634.514 1.149 1.149 1.149h7.628c.427 0 .8-.233.998-.58.041-.146.096-.333.15-.513z" fill="#09C1B0" fill-rule="evenodd"/></svg>
