<svg width="24" height="24" xmlns="http://www.w3.org/2000/svg"><g fill="none" fill-rule="evenodd"><circle fill="#FFF" cx="12.8" cy="12" r="10.4"/><path d="M12 24C5.383 24 0 18.617 0 12S5.383 0 12 0s12 5.383 12 12-5.383 12-12 12zm6.958-16.622c-.336-.334-1.107-.514-1.438-.178l-7.2 7.2-3.84-3.84c-.331-.34-1.022-.048-1.358.28a.855.855 0 0 0-.017 1.213l4.574 4.668c.003.002.005.002.007.005.003.002.003.004.005.007.053.053.123.086.185.122.034.02.06.048.094.06a.88.88 0 0 0 .646 0c.033-.014.057-.043.09-.057.063-.036.132-.068.185-.123.003-.002.003-.005.005-.007s.005-.002.007-.005l8.062-8.138a.851.851 0 0 0-.007-1.207z" fill="#81D8D0" fill-rule="nonzero"/></g></svg>
