<svg width="56" height="78" xmlns="http://www.w3.org/2000/svg"><g fill="none" fill-rule="evenodd"><path d="M41.552 14.22L7.639 31.447v10.518c0 11.453 9.078 20.738 20.275 20.738 11.198 0 20.276-9.285 20.276-20.738V29.565c0-6.081-2.56-11.551-6.638-15.344" fill="#F4D5C1"/><path d="M48.19 41.964c0 11.453-9.078 20.738-20.276 20.738-11.197 0-20.275-9.285-20.275-20.738V31.446L41.552 14.22c4.078 3.793 6.638 9.263 6.638 15.344v12.399zm7.25 10.349a9.42 9.42 0 0 0-1.967-5.765V27.851c0-14.437-11.443-26.14-25.559-26.14C13.8 1.71 2.357 13.413 2.357 27.85v18.697a9.44 9.44 0 0 0 1.254 12.87c-1 1.79-1.575 3.85-1.575 6.047 0 6.865 5.565 12.43 12.43 12.43 3.04 0 5.824-1.094 7.983-2.906a6.781 6.781 0 0 0 5.465 2.768 6.782 6.782 0 0 0 5.466-2.768 12.375 12.375 0 0 0 7.982 2.906c6.865 0 12.431-5.565 12.431-12.43 0-2.197-.575-4.258-1.574-6.048a9.44 9.44 0 0 0 3.222-7.104z" fill="#121C28"/><path d="M16.785 39.221a.972.972 0 1 1-1.945 0 .972.972 0 0 1 1.945 0M18.215 37.076a.972.972 0 1 1-1.944-.001.972.972 0 0 1 1.944.001M19.645 39.221a.972.972 0 1 1-1.944 0 .972.972 0 0 1 1.944 0M36.806 39.221a.972.972 0 1 1-1.943 0 .972.972 0 0 1 1.943 0M38.237 37.076a.972.972 0 1 1-1.944 0 .972.972 0 0 1 1.944 0M39.667 39.221a.972.972 0 1 1-1.945 0 .972.972 0 0 1 1.945 0" fill="#EEA8AD"/><path d="M5.633 16.686a1.642 1.642 0 0 1-.744-3.103L30.657.493a1.64 1.64 0 1 1 1.485 2.924L6.375 16.507a1.633 1.633 0 0 1-.742.18" fill="#E2624C"/><path d="M19.01 30.531a1.92 1.92 0 1 1-3.841 0 1.92 1.92 0 0 1 3.84 0M39.425 30.531a1.92 1.92 0 1 1-3.84 0 1.92 1.92 0 0 1 3.84 0" fill="#2F302E"/><path d="M27.183 53.263a7.194 7.194 0 0 1-2.213-.349 1.017 1.017 0 0 1 .625-1.935 5.195 5.195 0 0 0 6.531-3.345 1.02 1.02 0 0 1 1.28-.655c.534.174.827.747.655 1.28-.986 3.055-3.828 5.004-6.878 5.004" fill="#D07369"/><path d="M20.038 27.398a.747.747 0 0 1-.601-.301 2.98 2.98 0 0 0-2.414-1.21 2.98 2.98 0 0 0-2.414 1.21.747.747 0 1 1-1.2-.893 4.52 4.52 0 0 1 3.614-1.812c1.419 0 2.769.677 3.614 1.812a.747.747 0 0 1-.6 1.194M41.255 27.398a.747.747 0 0 1-.6-.301 2.98 2.98 0 0 0-2.413-1.21 2.98 2.98 0 0 0-2.415 1.21.747.747 0 1 1-1.2-.893 4.523 4.523 0 0 1 3.615-1.812c1.418 0 2.768.677 3.613 1.812a.748.748 0 0 1-.6 1.194" fill="#2F302E"/><path d="M51.124 28.743a3.377 3.377 0 1 1-6.755 0 3.377 3.377 0 0 1 6.755 0" fill="#F4D5C1"/><path d="M49.003 28.743a1.256 1.256 0 1 1-2.512-.001 1.256 1.256 0 0 1 2.512 0" fill="#D07369"/><path d="M27.262 31.222a2.455 2.455 0 0 0-2.447 2.448v6.118a2.455 2.455 0 0 0 2.447 2.447 2.454 2.454 0 0 0 2.448-2.447V33.67a2.455 2.455 0 0 0-2.448-2.448" fill="#EFB3A1"/></g></svg>
