<svg width="45" height="45" xmlns="http://www.w3.org/2000/svg"><g fill-rule="nonzero" fill="none"><path d="M23.328 22.488l2.425 2.424a13.633 13.633 0 0 1 7.982-3.503 11.257 11.257 0 0 0-2.853-6.475l-7.554 7.554zm-1.682 0l-2.424-2.425a13.632 13.632 0 0 1-7.98 3.504 11.257 11.257 0 0 0 2.85 6.474l7.554-7.553zm4.108 4.107a12.445 12.445 0 0 0-3.155 7.19 11.254 11.254 0 0 0 7.442-2.902l-4.287-4.288zm-5.69-7.373l2.423 2.425 7.554-7.554a11.258 11.258 0 0 0-6.474-2.852 13.632 13.632 0 0 1-3.504 7.981zm4.848 6.531l-2.425-2.424-7.553 7.553a11.256 11.256 0 0 0 6.475 2.852 13.633 13.633 0 0 1 3.503-7.98zm-5.69-7.372a12.446 12.446 0 0 0 3.155-7.19 11.252 11.252 0 0 0-7.443 2.902l4.287 4.288zm-5.129-3.447a11.254 11.254 0 0 0-2.902 7.443c2.7-.26 5.214-1.363 7.19-3.155l-4.288-4.288zm16.79 15.108a11.253 11.253 0 0 0 2.902-7.443c-2.7.26-5.214 1.363-7.19 3.155l4.287 4.288z" fill="#FFAD54"/><path d="M22.488 10C15.602 10 10 15.602 10 22.488c0 6.886 5.602 12.487 12.488 12.487 6.886 0 12.488-5.601 12.488-12.487S29.373 10 22.488 10zM11.19 22.377a11.253 11.253 0 0 1 2.902-7.443l4.287 4.288a12.446 12.446 0 0 1-7.19 3.155zM22.377 11.19a12.446 12.446 0 0 1-3.156 7.19l-4.287-4.288a11.252 11.252 0 0 1 7.443-2.902zm11.408 11.408a11.252 11.252 0 0 1-2.903 7.443l-4.287-4.288a12.446 12.446 0 0 1 7.19-3.155zm-10.457-.111l7.554-7.554a11.257 11.257 0 0 1 2.853 6.475 13.633 13.633 0 0 0-7.982 3.503l-2.425-2.424zm-1.682 0l-7.553 7.553a11.257 11.257 0 0 1-2.852-6.474 13.632 13.632 0 0 0 7.981-3.504l2.424 2.425zm-1.583-3.266a13.633 13.633 0 0 0 3.504-7.98 11.258 11.258 0 0 1 6.474 2.851l-7.554 7.554-2.424-2.425zm2.424 4.107l2.425 2.424a13.632 13.632 0 0 0-3.503 7.981 11.257 11.257 0 0 1-6.475-2.852l7.553-7.553zm3.267 3.266l4.287 4.288a11.254 11.254 0 0 1-7.442 2.902c.26-2.7 1.363-5.214 3.155-7.19z" fill="#353535"/></g></svg>
