<svg width="45" height="45" xmlns="http://www.w3.org/2000/svg"><g fill="none" fill-rule="evenodd"><path d="M20.47 13.42c-5.624.955-9.957 5.773-9.97 11.08h24c-.045-5.34-4.352-10.131-9.97-11.08a1.872 1.872 0 0 0-.03-.17l-.175-.786a1.87 1.87 0 0 0-3.65 0l-.175.786a1.849 1.849 0 0 0-.03.17z" fill="#FFF"/><path d="M20.473 13.4c-2.938.456-5.092 1.902-6.886 3.802-1.394 1.476-3.081 4.987-3.087 7.298h24c-.022-2.664-2.084-6.514-3.862-8.055-1.765-1.53-3.587-2.658-6.111-3.047a1.874 1.874 0 0 0-.027-.148l-.175-.786a1.87 1.87 0 0 0-3.65 0l-.175.786c-.011.05-.02.1-.027.15z" fill="#FDA8CE"/><path d="M20.47 13.42c-5.624.955-9.957 5.773-9.97 11.08h24c-.045-5.34-4.352-10.131-9.97-11.08a1.872 1.872 0 0 0-.03-.17l-.175-.786a1.87 1.87 0 0 0-3.65 0l-.175.786a1.849 1.849 0 0 0-.03.17z" stroke="#9D4A6F" stroke-width="1.2"/><path d="M33.9 30.681h.225a1.875 1.875 0 0 0 0-3.75h-23.25a1.875 1.875 0 0 0 0 3.75h.225l.649 1.621a1 1 0 0 0 .928.629h19.646a1 1 0 0 0 .928-.629l.649-1.621z" fill="#FFF"/><path d="M33.9 30.681h.225a1.875 1.875 0 0 0 0-3.75h-22.25a1.875 1.875 0 0 0 0 3.75h.225l.649 1.621a1 1 0 0 0 .928.629h18.646a1 1 0 0 0 .928-.629l.649-1.621z" fill="#EC80B0"/><path d="M32.694 32.08l.8-1.999h.631a1.275 1.275 0 0 0 0-2.55h-23.25a1.275 1.275 0 1 0 0 2.55h.631l.8 1.999a.4.4 0 0 0 .371.251h19.646a.4.4 0 0 0 .371-.251z" stroke="#9D4A6F" stroke-width="1.2"/></g></svg>
