<svg width="45" height="45" xmlns="http://www.w3.org/2000/svg" xmlns:xlink="http://www.w3.org/1999/xlink"><defs><path d="M2.214.177h14.5a1 1 0 0 1 1 1v3.428h-15.5a2.214 2.214 0 1 1 0-4.428z" id="a"/><path d="M0 3.543h19.418a2 2 0 0 1 2 2v18.141a2 2 0 0 1-2 2H2a2 2 0 0 1-2-2V3.543z" id="b"/></defs><g transform="translate(12 10)" fill="none" fill-rule="evenodd"><path fill="#353535" d="M0 2.279l.886.378v1.771H0z"/><use fill="#FFCD00" xlink:href="#a"/><path stroke="#353535" stroke-width="1.2" d="M17.113 4.005V1.177a.4.4 0 0 0-.4-.4H2.214a1.614 1.614 0 0 0 0 3.228h14.9z"/><use fill="#FFE476" xlink:href="#b"/><path stroke="#353535" stroke-width="1.2" d="M.6 4.143v19.541a1.4 1.4 0 0 0 1.4 1.4h17.418a1.4 1.4 0 0 0 1.4-1.4V5.543a1.4 1.4 0 0 0-1.4-1.4H.6z"/><rect fill="#353535" x="4.924" y="7.971" width="11.514" height="1.063" rx=".531"/><rect fill="#353535" x="4.924" y="11.514" width="11.514" height="1.063" rx=".531"/><rect fill="#353535" x="4.924" y="15.056" width="5.757" height="1.063" rx=".531"/></g></svg>
