<svg width="45" height="45" xmlns="http://www.w3.org/2000/svg" xmlns:xlink="http://www.w3.org/1999/xlink"><defs><path d="M8.424 22.273h18.152a1 1 0 0 1 1 1V31a1 1 0 0 1-1 1H8.424a1 1 0 0 1-1-1v-7.727a1 1 0 0 1 1-1z" id="a"/><path d="M12.757 12.687l15.612-6.66a1 1 0 0 1 1.304 1.332L22.87 22.384a1 1 0 0 1-.518.507l-15.613 6.66a1 1 0 0 1-1.303-1.332l6.802-15.025a1 1 0 0 1 .519-.507z" id="b"/></defs><g fill="none" fill-rule="evenodd"><g transform="translate(5)"><use fill="#B0D8FF" xlink:href="#a"/><path stroke="#353535" d="M8.424 22.773a.5.5 0 0 0-.5.5V31a.5.5 0 0 0 .5.5h18.152a.5.5 0 0 0 .5-.5v-7.727a.5.5 0 0 0-.5-.5H8.424z"/></g><path fill="#353535" d="M12.424 20.152h20.152v3.182H12.424z"/><g transform="rotate(45 20.054 23.825)"><use fill="#5BA2E4" xlink:href="#b"/><path stroke="#353535" d="M12.953 13.147a.5.5 0 0 0-.26.254L5.892 28.426a.5.5 0 0 0 .652.666l15.612-6.66a.5.5 0 0 0 .26-.254l6.802-15.025a.5.5 0 0 0-.651-.666l-15.613 6.66z"/></g><path d="M36.818 19.09h1.06v10.077a.53.53 0 0 1-1.06 0V19.09z" fill="#353535"/></g></svg>
