<svg width="45" height="45" xmlns="http://www.w3.org/2000/svg"><g transform="translate(8 12)" fill="none" fill-rule="evenodd"><circle stroke="#353535" stroke-width="1.2" cx="14.5" cy="4.5" r="4.5"/><path fill="#FFF" d="M17.132 8.637h-5.495v2.198h5.495z"/><path d="M18.23 10.835c0 .607-.491 1.1-1.098 1.1h-5.495a1.099 1.099 0 0 1-1.099-1.1v-.55H.098v8.242c0 .607.493 1.1 1.1 1.1H27.57c.607 0 1.1-.493 1.1-1.1v-8.241H18.23v.55zM27.571 2.593H1.198c-.607 0-1.1.492-1.1 1.1v5.494h10.44v-.55c0-.607.492-1.099 1.1-1.099h5.494c.607 0 1.099.492 1.099 1.1v.549h10.44V3.692c0-.607-.493-1.099-1.1-1.099z" fill="#6DD287"/><path fill="#34861B" d="M11 8h6.623v3H11z"/><path d="M18.23 9.187v-.55c0-.607-.491-1.099-1.098-1.099h-5.495c-.607 0-1.099.492-1.099 1.1v.549h-9.44V3.692c0-.607.493-1.099 1.1-1.099H26.57c.607 0 1.1.492 1.1 1.1v5.494h-9.44zm-1.098-.55v2.198h-5.495V8.637h5.495zm9.44 10.99H2.197a1.099 1.099 0 0 1-1.1-1.1v-8.241h9.44v.55c0 .606.492 1.098 1.1 1.098h5.494c.607 0 1.099-.492 1.099-1.099v-.55h9.44v8.242c0 .607-.493 1.1-1.1 1.1zM2.197 1.494A2.198 2.198 0 0 0 0 3.692v14.835c0 1.214.984 2.198 2.198 2.198H26.57a2.198 2.198 0 0 0 2.198-2.198V3.692a2.198 2.198 0 0 0-2.198-2.197H2.198z" fill="#353535"/></g></svg>
