<svg width="14" height="13" xmlns="http://www.w3.org/2000/svg"><path d="M1.441.94h11.117c.26 0 .474.21.474.476v7.61c0 .266-.215.48-.478.482l-2.767.018a.491.491 0 0 0-.323.123l-2.868 2.533.664.012-2.648-2.533a.49.49 0 0 0-.335-.136l-2.814-.017a.49.49 0 0 1-.496-.482v-7.61c0-.263.217-.476.474-.476zM0 9.026c0 .783.651 1.417 1.457 1.422l2.813.019-.336-.136 2.648 2.534c.183.175.475.18.665.013l2.868-2.534-.322.122 2.767-.018c.8-.008 1.444-.644 1.44-1.422v-7.61C14 .633 13.357 0 12.559 0H1.44C.647 0 0 .637 0 1.415V9.026z" fill-rule="nonzero" fill="#353535"/></svg>
