<svg width="52" height="52" xmlns="http://www.w3.org/2000/svg"><g fill-rule="nonzero" stroke="#353535" fill="none"><path d="M26.107 1C12.314.928 1.073 12.05 1 25.844.928 39.637 12.05 50.878 25.844 50.95c13.793.073 25.034-11.05 25.107-24.844C51.024 12.314 39.9 1.073 26.107 1z"/><path d="M36.997 30.461c-.173-2.338-1.775-4.295-2.703-5.307.128-.295.441-2-.767-3.163v-.082c0-4.59-3.338-7.893-7.526-7.909-4.189.015-7.526 3.318-7.526 7.91v.08c-1.208 1.165-.896 2.87-.767 3.164-.925 1.013-2.528 2.97-2.703 5.307-.03.614.066 1.51.373 1.908.374.484 1.4-.098 2.133-1.647.203.719.676 1.814 1.741 3.205-1.783.398-2.291 2.12-1.693 3.06.424.663 1.392 1.209 3.063 1.209 2.97 0 4.282-.78 4.868-1.326.118-.118.29-.176.51-.176.22 0 .39.057.51.176.586.544 1.898 1.326 4.868 1.326 1.67 0 2.638-.546 3.06-1.209.6-.94.092-2.662-1.692-3.06 1.067-1.391 1.538-2.488 1.742-3.205.732 1.55 1.76 2.132 2.133 1.647.308-.398.405-1.292.373-1.908h.003z"/></g></svg>
