<svg width="58" height="73" xmlns="http://www.w3.org/2000/svg"><g fill="none" fill-rule="evenodd"><path d="M49.396 15.297a4.155 4.155 0 0 0-4.143 4.143v7.648a4.155 4.155 0 0 0 4.143 4.143 4.155 4.155 0 0 0 4.142-4.143V19.44a4.155 4.155 0 0 0-4.142-4.143" fill="#16222B"/><path d="M10.835 32.824a5.418 5.418 0 1 1-10.836 0 5.418 5.418 0 0 1 10.836 0" fill="#EFB3A1"/><path d="M7.507 32.753a2.16 2.16 0 1 1-4.32 0 2.16 2.16 0 0 1 4.32 0" fill="#D48886"/><path d="M9.902 16.571A4.803 4.803 0 0 0 5.1 21.375v28.658c0 12.444 10.182 22.626 22.626 22.626 12.445 0 22.627-10.182 22.627-22.626V16.571H9.902" fill="#EFB3A1"/><path d="M28.044 32.505c-2.804 0-5.099 2.295-5.099 5.1v7.01c0 2.805 2.295 5.1 5.099 5.1 2.804 0 5.099-2.295 5.099-5.1v-7.01c0-2.805-2.295-5.1-5.099-5.1" fill="#D8716C"/><path d="M17.209 35.692a1.912 1.912 0 1 1-3.824 0 1.912 1.912 0 0 1 3.824 0M40.791 36.33a1.912 1.912 0 1 1-3.824 0 1.912 1.912 0 0 1 3.824 0" fill="#16222B"/><path d="M31.55 58.901h-7.012a.959.959 0 0 0-.956.956c0 .526.43.956.956.956h7.011c.526 0 .956-.43.956-.956a.959.959 0 0 0-.956-.956" fill="#7C313F"/><path d="M30.275 0H8.605C3.871 0 0 3.872 0 8.604c0 4.733 3.872 8.605 8.604 8.605h21.67c4.733 0 8.605-3.872 8.605-8.605C38.88 3.872 35.007 0 30.275 0" fill="#16222B"/><path d="M42.703 8.286H31.868c-4.206 0-7.648 3.441-7.648 7.648s3.442 7.648 7.648 7.648h10.835c4.207 0 7.649-3.441 7.649-7.648s-3.442-7.648-7.649-7.648" fill="#16222B"/><path d="M58 32.824a5.418 5.418 0 1 1-10.836 0 5.418 5.418 0 0 1 10.836 0" fill="#EFB3A1"/><path d="M54.672 32.753a2.16 2.16 0 1 1-4.32 0 2.16 2.16 0 0 1 4.32 0" fill="#D48886"/><path d="M42.959 29.319h-7.267c-1.05 0-1.912.86-1.912 1.912 0 1.051.861 1.912 1.912 1.912h7.267c1.052 0 1.912-.86 1.912-1.912s-.86-1.912-1.912-1.912M18.101 29.319h-7.266c-1.051 0-1.912.86-1.912 1.912 0 1.051.86 1.912 1.912 1.912h7.266c1.052 0 1.912-.86 1.912-1.912s-.86-1.912-1.912-1.912M49.077 15.297c-1.052 0-1.912.86-1.912 1.912v20.395c0 1.052.86 1.912 1.912 1.912s1.912-.86 1.912-1.912V17.21c0-1.052-.86-1.912-1.912-1.912" fill="#16222B"/><path d="M37.899 65.1a2.1 2.1 0 0 1-2.101-2.1c0-4.3-3.498-7.798-7.799-7.798-4.3 0-7.797 3.498-7.797 7.798A2.1 2.1 0 1 1 16 63c0-6.617 5.382-12 12-12 6.616 0 12 5.383 12 12 0 1.16-.94 2.1-2.101 2.1" fill="#19272C"/></g></svg>
