<svg width="30" height="30" xmlns="http://www.w3.org/2000/svg"><g transform="translate(6 4)" fill="none" fill-rule="evenodd"><circle stroke="#353535" fill="#FFF" cx="9" cy="6" r="6"/><circle stroke="#353535" cx="9" cy="6" r="6"/><path d="M0 22c0-5.523 3.477-10 9-10s9 4.477 9 10H0z" fill="#FFF"/><path d="M0 22c0-5.523 3.477-10 9-10s9 4.477 9 10H0z" stroke="#353535"/><path d="M1.602 20.528c.078-1.946 1.057-3.611 2.126-4.839 1.217-1.398 3.03-2.228 5.272-2.228 1.867 0 3.426.541 4.6 1.539 1.476 1.254 2.71 3.209 2.794 5.528H1.602z" fill="#81D8D0"/><circle fill="#81D8D0" cx="9" cy="6" r="4.5"/><path fill="#353535" d="M8.5 13.5h1.037v3.508H8.5z"/><path d="M5.434 5.942c.026-.218.086-.427.156-.652.089-.285.232-.582.382-.84a3.759 3.759 0 0 1 .908-1.026c.128-.098.322-.13.406-.04.084.09.12.22.02.318-.174.171-.374.344-.537.54-.115.138-.208.293-.308.444-.038.056-.103.18-.162.31a3.919 3.919 0 0 0-.16.427c-.073.24-.141.442-.167.65-.015.126-.184.25-.336.213-.152-.038-.223-.167-.202-.344z" fill-rule="nonzero" fill="#D9F9F6"/></g></svg>
