<svg width="30" height="30" xmlns="http://www.w3.org/2000/svg"><g fill="none" fill-rule="evenodd"><path d="M15.322 2.905c-.057-.035-.348-.139-.431-.139a1 1 0 0 0-.425.146c.02-.014-2.988 2.427-9.024 7.323v13.266c0 1.08.015 1.9.456 2.72.442.823 1.452 1.106 3.067 1.106h11.94c.806 0 1.533-.05 2.091-.253.518-.19.886-.52 1.126-.853.492-.644.629-1.582.629-2.72V10.234l-9.43-7.33z" fill="#353535" fill-rule="nonzero"/><path d="M23.667 10.725c.03.424.03 4.797 0 13.12 0 .972-.278 1.51-.601 1.865-.374.41-.86.557-1.912.557l-6.273.009H8.832c-.952 0-1.502-.27-1.805-.566-.321-.315-.579-.787-.579-1.865.05-8.746.05-13.158 0-13.235l8.433-6.748 8.786 6.863z" fill="#FFF"/><path d="M11.893 15.931h5.9c1.35 0 1.586.019 1.586 1.01v8.473h-8.605V16.94c0-.991-.233-1.01 1.12-1.01z" fill="#FFF"/></g></svg>
