<svg width="30" height="30" xmlns="http://www.w3.org/2000/svg"><g fill="none" fill-rule="evenodd"><path d="M15.367 26.955a.643.643 0 0 1-.207-.035L4.902 23.76c-.135-.045-.501-.12-.7-.37-.18-.227-.202-.627-.202-.753V5.761c0-.201.081-.49.248-.607.167-.118.423-.202.654-.124l10.832 3.588c.256.086.266.572.266.837v16.876a.62.62 0 0 1-.266.508.638.638 0 0 1-.367.116z" fill="#353535" fill-rule="nonzero"/><path d="M15.633 26.955c.07 0 .14-.012.207-.035l10.258-3.16c.135-.045.501-.12.7-.37.18-.227.202-.627.202-.753V5.761c0-.201-.081-.49-.248-.607-.167-.118-.423-.202-.654-.124L15.266 8.618c-.256.086-.266.572-.266.837v16.876c0 .202.099.39.266.508a.638.638 0 0 0 .367.116z" fill="#353535" fill-rule="nonzero"/><path fill="#FFF" d="M5 22.726l9.997 3.116.557-16.17L5 6.209z"/><path fill="#FFF" d="M26 22.734l-10.493 3.223v-16.3L26 6.129z"/><path d="M14.68 9.392l.819.27.97-.27.08.195-.033 16.06-1.017.31c-.055.01-.1.01-.134 0L14 25.532l.68-16.14z" fill="#FFF"/><path fill="#81D8D0" d="M6 7.523l9.5 3.13L25 7.45v14.61l-9.5 2.852L6 22.058z"/><path fill="#353535" d="M14.977 12.318l.523.17.523-.17v9.205l-.523.204-.523-.204z"/><path d="M7.388 9.003c-.153-.02-.265.073-.32.245-.103.32-.059.842-.059.917v4.184c0 .202.156.367.348.367a.358.358 0 0 0 .347-.367V9.8l2.773.874c.12.054.322-.058.356-.17.054-.179-.036-.371-.179-.437-1.886-.67-2.974-1.026-3.266-1.065z" fill="#D9F9F6" fill-rule="nonzero"/></g></svg>
